<?xml version="1.0" encoding="UTF-8" standalone="no"?>
<!-- Created with Inkscape (http://www.inkscape.org/) -->

<svg
   xmlns:dc="http://purl.org/dc/elements/1.1/"
   xmlns:cc="http://creativecommons.org/ns#"
   xmlns:rdf="http://www.w3.org/1999/02/22-rdf-syntax-ns#"
   xmlns:svg="http://www.w3.org/2000/svg"
   xmlns="http://www.w3.org/2000/svg"
   xmlns:sodipodi="http://sodipodi.sourceforge.net/DTD/sodipodi-0.dtd"
   xmlns:inkscape="http://www.inkscape.org/namespaces/inkscape"
   width="210mm"
   height="297mm"
   viewBox="0 0 744.09448819 1052.3622047"
   id="svg2"
   version="1.1"
   inkscape:version="0.91pre4 r13712"
   sodipodi:docname="rebase_exemples.svg">
  <defs
     id="defs4">
    <inkscape:perspective
       sodipodi:type="inkscape:persp3d"
       inkscape:vp_x="0 : 526.1811 : 1"
       inkscape:vp_y="0 : 1000 : 0"
       inkscape:vp_z="744.09449 : 526.1811 : 1"
       inkscape:persp3d-origin="372.04724 : 350.7874 : 1"
       id="perspective4555" />
    <filter
       inkscape:label="Jigsaw Piece"
       inkscape:menu="Bevels"
       inkscape:menu-tooltip="Low, sharp bevel"
       style="color-interpolation-filters:sRGB;"
       id="filter4314">
      <feSpecularLighting
         in="SourceAlpha"
         surfaceScale="1"
         specularConstant="2"
         specularExponent="18.5"
         id="feSpecularLighting4316">
        <feDistantLight
           elevation="30"
           azimuth="225"
           id="feDistantLight4318" />
      </feSpecularLighting>
      <feComposite
         result="result0"
         operator="atop"
         in2="SourceGraphic"
         id="feComposite4320" />
      <feMorphology
         radius="2"
         result="result1"
         in="SourceAlpha"
         operator="dilate"
         id="feMorphology4322" />
      <feComposite
         in="result0"
         in2="result1"
         id="feComposite4324" />
    </filter>
  </defs>
  <sodipodi:namedview
     id="base"
     pagecolor="#ffffff"
     bordercolor="#666666"
     borderopacity="1.0"
     inkscape:pageopacity="0.0"
     inkscape:pageshadow="2"
     inkscape:zoom="0.7"
     inkscape:cx="199.65829"
     inkscape:cy="555.80017"
     inkscape:document-units="px"
     inkscape:current-layer="layer1"
     showgrid="false"
     inkscape:window-width="1920"
     inkscape:window-height="1017"
     inkscape:window-x="-8"
     inkscape:window-y="-8"
     inkscape:window-maximized="1" />
  <metadata
     id="metadata7">
    <rdf:RDF>
      <cc:Work
         rdf:about="">
        <dc:format>image/svg+xml</dc:format>
        <dc:type
           rdf:resource="http://purl.org/dc/dcmitype/StillImage" />
        <dc:title />
      </cc:Work>
    </rdf:RDF>
  </metadata>
  <g
     inkscape:label="Calque 1"
     inkscape:groupmode="layer"
     id="layer1">
    <rect
       style="opacity:1;fill:#000000;fill-opacity:1;stroke:none;stroke-width:17.90200043;stroke-linejoin:round;stroke-miterlimit:4;stroke-dasharray:none;stroke-opacity:1"
       id="rect4571"
       width="1647.1428"
       height="1121.4286"
       x="-621.42859"
       y="-46.209225" />
    <path
       style="opacity:1;fill:#ffffff;fill-opacity:1;fill-rule:nonzero;stroke:none;stroke-width:5.38100004;stroke-linecap:butt;stroke-linejoin:miter;stroke-miterlimit:4;stroke-dasharray:none;stroke-dashoffset:0;stroke-opacity:1"
       id="path4303-5"
       d="m 214.86104,423.52101 c 8.93937,6.76738 16.52539,15.20489 24.30476,23.24097 10.38071,10.72525 21.33708,20.9064 32.55018,30.75619 4.9684,4.2424 10.07121,8.44334 13.88751,13.79562 1.26757,2.03477 1.85341,4.39121 3.08174,6.44246 0,0 -13.85314,2.92271 -13.85314,2.92271 l 0,0 c -1.07771,-2.0626 -1.73476,-4.31661 -2.95417,-6.30625 -3.74286,-5.19052 -8.63002,-9.37212 -13.39036,-13.59958 -11.03906,-10.02236 -21.92856,-20.23945 -32.35641,-30.89676 -7.88499,-7.9721 -15.52693,-16.50015 -24.90629,-22.75266 0,0 13.63618,-3.6027 13.63618,-3.6027 z"
       inkscape:connector-curvature="0" />
    <flowRoot
       xml:space="preserve"
       id="flowRoot4368-8-8-4"
       style="font-style:normal;font-weight:normal;font-size:40px;line-height:125%;font-family:sans-serif;letter-spacing:0px;word-spacing:0px;fill:#ffffff;fill-opacity:1;stroke:none;stroke-width:1px;stroke-linecap:butt;stroke-linejoin:miter;stroke-opacity:1"
       transform="translate(-346.74343,-149.05933)"
       inkscape:export-xdpi="54.90102"
       inkscape:export-ydpi="54.90102"><flowRegion
         id="flowRegion4370-4-6-7"><rect
           id="rect4372-2-7-6"
           width="472.85712"
           height="32.857113"
           x="-111.42857"
           y="235.21935"
           style="fill:#ffffff;fill-opacity:1" /></flowRegion><flowPara
         style="font-style:normal;font-variant:normal;font-weight:bold;font-stretch:normal;font-size:22.5px;font-family:Aharoni;-inkscape-font-specification:'Aharoni Bold';fill:#ffffff;fill-opacity:1"
         id="flowPara4400-3-4">master</flowPara></flowRoot>    <path
       style="opacity:1;fill:#ffffff;fill-opacity:1;fill-rule:nonzero;stroke:none;stroke-width:5.38100004;stroke-linecap:butt;stroke-linejoin:miter;stroke-miterlimit:4;stroke-dasharray:none;stroke-dashoffset:0;stroke-opacity:1"
       id="path4189"
       d="m -412.87713,155.95952 c -6.32731,1.65399 -11.4921,5.51055 -15.73937,10.34956 -2.95371,4.82062 -4.75148,9.3899 -3.07184,14.98689 3.01113,5.03803 8.13438,8.09317 13.39175,10.3462 4.84113,1.78757 9.87319,2.0105 14.94943,1.58319 7.79973,-1.44646 -4.76506,0.90229 -8.9916,1.40082 -0.80125,0.0945 1.54112,-0.48187 2.29444,-0.77075 2.25366,-0.86422 4.33047,-2.01115 6.38873,-3.25579 3.60465,-2.02402 6.06267,-5.26462 8.15794,-8.73904 1.84614,-3.43932 2.70001,-7.06639 2.19649,-10.93012 -2.10265,-5.83387 -7.74984,-7.48939 -13.24838,-8.76708 -4.4709,-0.59416 -18.35076,1.83958 2.12172,-1.0346 0,0 -13.84207,0.36873 -13.84207,0.36873 l 0,0 c 8.70654,-1.72467 16.37451,-4.47657 25.01765,-3.29601 6.29667,1.69464 11.48838,3.73416 13.80598,10.34237 0.5866,4.16593 -0.18181,8.07514 -2.08833,11.84507 -1.99716,3.65644 -4.47847,7.2486 -8.12093,9.41826 -8.06348,5.35527 -17.22125,7.11252 -26.99214,7.83891 -5.16128,0.26177 -10.28195,-0.24441 -15.10035,-2.25746 -5.46805,-2.60886 -10.80312,-6.01575 -13.72726,-11.51254 -0.2186,-0.79406 -0.53238,-1.56787 -0.65579,-2.38217 -0.74201,-4.89583 1.3689,-9.79479 3.62555,-13.98233 4.17442,-5.01264 9.22149,-9.12956 15.50568,-11.20607 0,0 14.1227,-0.34604 14.1227,-0.34604 z"
       inkscape:connector-curvature="0" />
    <path
       style="opacity:1;fill:#ffffff;fill-opacity:1;fill-rule:nonzero;stroke:none;stroke-width:5.38100004;stroke-linecap:butt;stroke-linejoin:miter;stroke-miterlimit:4;stroke-dasharray:none;stroke-dashoffset:0;stroke-opacity:1"
       id="path4193"
       d="m -408.59538,195.7566 c 0.57194,9.53362 0.73545,19.08383 0.87393,28.63142 0.0344,11.48415 0.36932,22.97458 0.0435,34.45591 -0.51722,6.96896 -0.35852,14.00309 -1.09502,20.95412 0,0 -13.89665,2.02209 -13.89665,2.02209 l 0,0 c 1.02043,-6.89409 0.81937,-13.94353 1.45343,-20.87663 0.41347,-11.46153 0.11919,-22.93625 0.0448,-34.40226 -0.17837,-9.48696 -0.3265,-18.99755 -1.32,-28.44152 0,0 13.89605,-2.34313 13.89605,-2.34313 z"
       inkscape:connector-curvature="0" />
    <path
       style="opacity:1;fill:#ffffff;fill-opacity:1;fill-rule:nonzero;stroke:none;stroke-width:5.38100004;stroke-linecap:butt;stroke-linejoin:miter;stroke-miterlimit:4;stroke-dasharray:none;stroke-dashoffset:0;stroke-opacity:1"
       id="path4189-1"
       d="m -414.39488,277.20136 c -6.32731,1.65399 -11.4921,5.51055 -15.73937,10.34956 -2.95371,4.82062 -4.75148,9.3899 -3.07184,14.98689 3.01113,5.03803 8.13438,8.09317 13.39175,10.3462 4.84113,1.78757 9.87319,2.0105 14.94943,1.58319 7.79973,-1.44646 -4.76506,0.90229 -8.9916,1.40082 -0.80125,0.0945 1.54112,-0.48187 2.29444,-0.77075 2.25366,-0.86422 4.33047,-2.01115 6.38873,-3.25579 3.60465,-2.02402 6.06267,-5.26462 8.15794,-8.73904 1.84614,-3.43932 2.70001,-7.06639 2.19649,-10.93012 -2.10265,-5.83387 -7.74984,-7.48939 -13.24838,-8.76708 -4.4709,-0.59416 -18.35076,1.83958 2.12172,-1.0346 0,0 -13.84207,0.36873 -13.84207,0.36873 l 0,0 c 8.70654,-1.72467 16.37451,-4.47657 25.01765,-3.29601 6.29667,1.69464 11.48838,3.73416 13.80598,10.34237 0.5866,4.16593 -0.18181,8.07514 -2.08833,11.84507 -1.99716,3.65644 -4.47847,7.2486 -8.12093,9.41826 -8.06348,5.35527 -17.22125,7.11252 -26.99214,7.83891 -5.16128,0.26177 -10.28195,-0.24441 -15.10035,-2.25746 -5.46805,-2.60886 -10.80312,-6.01575 -13.72726,-11.51254 -0.2186,-0.79406 -0.53238,-1.56787 -0.65579,-2.38217 -0.74201,-4.89583 1.3689,-9.79479 3.62555,-13.98233 4.17442,-5.01264 9.22149,-9.12956 15.50568,-11.20607 0,0 14.1227,-0.34604 14.1227,-0.34604 z"
       inkscape:connector-curvature="0" />
    <path
       style="opacity:1;fill:#ffffff;fill-opacity:1;fill-rule:nonzero;stroke:none;stroke-width:5.38100004;stroke-linecap:butt;stroke-linejoin:miter;stroke-miterlimit:4;stroke-dasharray:none;stroke-dashoffset:0;stroke-opacity:1"
       id="path4189-15"
       d="m -415.82345,397.77279 c -6.32731,1.65399 -11.4921,5.51055 -15.73937,10.34956 -2.95371,4.82062 -4.75148,9.3899 -3.07184,14.98689 3.01113,5.03803 8.13438,8.09317 13.39175,10.3462 4.84113,1.78757 9.87319,2.0105 14.94943,1.58319 7.79973,-1.44646 -4.76506,0.90229 -8.9916,1.40082 -0.80125,0.0945 1.54112,-0.48187 2.29444,-0.77075 2.25366,-0.86422 4.33047,-2.01115 6.38873,-3.25579 3.60465,-2.02402 6.06267,-5.26462 8.15794,-8.73904 1.84614,-3.43932 2.70001,-7.06639 2.19649,-10.93012 -2.10265,-5.83387 -7.74984,-7.48939 -13.24838,-8.76708 -4.4709,-0.59416 -18.35076,1.83958 2.12172,-1.0346 0,0 -13.84207,0.36873 -13.84207,0.36873 l 0,0 c 8.70654,-1.72467 16.37451,-4.47657 25.01765,-3.29601 6.29667,1.69464 11.48838,3.73416 13.80598,10.34237 0.5866,4.16593 -0.18181,8.07514 -2.08833,11.84507 -1.99716,3.65644 -4.47847,7.2486 -8.12093,9.41826 -8.06348,5.35527 -17.22125,7.11252 -26.99214,7.83891 -5.16128,0.26177 -10.28195,-0.24441 -15.10035,-2.25746 -5.46805,-2.60886 -10.80312,-6.01575 -13.72726,-11.51254 -0.2186,-0.79406 -0.53238,-1.56787 -0.65579,-2.38217 -0.74201,-4.89583 1.3689,-9.79479 3.62555,-13.98233 4.17442,-5.01264 9.22149,-9.12956 15.50568,-11.20607 0,0 14.1227,-0.34604 14.1227,-0.34604 z"
       inkscape:connector-curvature="0" />
    <path
       style="opacity:1;fill:#ffffff;fill-opacity:1;fill-rule:nonzero;stroke:none;stroke-width:5.38100004;stroke-linecap:butt;stroke-linejoin:miter;stroke-miterlimit:4;stroke-dasharray:none;stroke-dashoffset:0;stroke-opacity:1"
       id="path4193-9"
       d="m -409.20654,313.61615 c 0.57194,9.53362 0.73545,19.08383 0.87393,28.63142 0.0344,11.48415 0.36932,22.97458 0.0435,34.45591 -0.51722,6.96896 -0.35852,14.00309 -1.09502,20.95412 0,0 -13.89665,2.02209 -13.89665,2.02209 l 0,0 c 1.02043,-6.89409 0.81937,-13.94353 1.45343,-20.87663 0.41347,-11.46153 0.11919,-22.93625 0.0448,-34.40226 -0.17837,-9.48696 -0.3265,-18.99755 -1.32,-28.44152 0,0 13.89605,-2.34313 13.89605,-2.34313 z"
       inkscape:connector-curvature="0" />
    <flowRoot
       xml:space="preserve"
       id="flowRoot4368-8-8-4-0"
       style="font-style:normal;font-weight:normal;font-size:40px;line-height:125%;font-family:sans-serif;letter-spacing:0px;word-spacing:0px;fill:#ffffff;fill-opacity:1;stroke:none;stroke-width:1px;stroke-linecap:butt;stroke-linejoin:miter;stroke-opacity:1"
       transform="translate(-425.03379,-74.07511)"
       inkscape:export-xdpi="54.90102"
       inkscape:export-ydpi="54.90102"><flowRegion
         id="flowRegion4370-4-6-7-4"><rect
           id="rect4372-2-7-6-3"
           width="472.85712"
           height="32.857113"
           x="-111.42857"
           y="235.21935"
           style="fill:#ffffff;fill-opacity:1" /></flowRegion><flowPara
         style="font-style:normal;font-variant:normal;font-weight:bold;font-stretch:normal;font-size:22.5px;font-family:Aharoni;-inkscape-font-specification:'Aharoni Bold';fill:#ffffff;fill-opacity:1"
         id="flowPara4400-3-4-2">e45f7</flowPara></flowRoot>    <flowRoot
       xml:space="preserve"
       id="flowRoot4368-8-8-4-0-5"
       style="font-style:normal;font-weight:normal;font-size:40px;line-height:125%;font-family:sans-serif;letter-spacing:0px;word-spacing:0px;fill:#ffffff;fill-opacity:1;stroke:none;stroke-width:1px;stroke-linecap:butt;stroke-linejoin:miter;stroke-opacity:1"
       transform="translate(-429.73368,43.342404)"
       inkscape:export-xdpi="54.90102"
       inkscape:export-ydpi="54.90102"><flowRegion
         id="flowRegion4370-4-6-7-4-4"><rect
           id="rect4372-2-7-6-3-3"
           width="472.85712"
           height="32.857113"
           x="-111.42857"
           y="235.21935"
           style="fill:#ffffff;fill-opacity:1" /></flowRegion><flowPara
         style="font-style:normal;font-variant:normal;font-weight:bold;font-stretch:normal;font-size:22.5px;font-family:Aharoni;-inkscape-font-specification:'Aharoni Bold';fill:#ffffff;fill-opacity:1"
         id="flowPara4400-3-4-2-3">c2d52</flowPara></flowRoot>    <flowRoot
       xml:space="preserve"
       id="flowRoot4368-8-8-4-0-5-6"
       style="font-style:normal;font-weight:normal;font-size:40px;line-height:125%;font-family:sans-serif;letter-spacing:0px;word-spacing:0px;fill:#ffffff;fill-opacity:1;stroke:none;stroke-width:1px;stroke-linecap:butt;stroke-linejoin:miter;stroke-opacity:1"
       transform="translate(-433.67861,164.9083)"
       inkscape:export-xdpi="54.90102"
       inkscape:export-ydpi="54.90102"><flowRegion
         id="flowRegion4370-4-6-7-4-4-3"><rect
           id="rect4372-2-7-6-3-3-7"
           width="472.85712"
           height="32.857113"
           x="-111.42857"
           y="235.21935"
           style="fill:#ffffff;fill-opacity:1" /></flowRegion><flowPara
         style="font-style:normal;font-variant:normal;font-weight:bold;font-stretch:normal;font-size:22.5px;font-family:Aharoni;-inkscape-font-specification:'Aharoni Bold';fill:#ffffff;fill-opacity:1"
         id="flowPara4400-3-4-2-3-5">1c3b8</flowPara></flowRoot>    <path
       style="opacity:1;fill:#ffffff;fill-opacity:1;fill-rule:nonzero;stroke:none;stroke-width:5.38100004;stroke-linecap:butt;stroke-linejoin:miter;stroke-miterlimit:4;stroke-dasharray:none;stroke-dashoffset:0;stroke-opacity:1"
       id="path4303"
       d="m -380.10057,420.55812 c 8.93937,6.76738 16.52539,15.20489 24.30476,23.24097 10.38071,10.72525 21.33708,20.9064 32.55018,30.75619 4.9684,4.2424 10.07121,8.44334 13.88751,13.79562 1.26757,2.03477 1.85341,4.39121 3.08174,6.44246 0,0 -13.85314,2.92271 -13.85314,2.92271 l 0,0 c -1.07771,-2.0626 -1.73476,-4.31661 -2.95417,-6.30625 -3.74286,-5.19052 -8.63002,-9.37212 -13.39036,-13.59958 -11.03906,-10.02236 -21.92856,-20.23945 -32.35641,-30.89676 -7.88499,-7.9721 -15.52693,-16.50015 -24.90629,-22.75266 0,0 13.63618,-3.6027 13.63618,-3.6027 z"
       inkscape:connector-curvature="0" />
    <path
       style="opacity:1;fill:#ffffff;fill-opacity:1;fill-rule:nonzero;stroke:none;stroke-width:5.38100004;stroke-linecap:butt;stroke-linejoin:miter;stroke-miterlimit:4;stroke-dasharray:none;stroke-dashoffset:0;stroke-opacity:1"
       id="path4189-15-1"
       d="m -313.25202,490.62993 c -6.32731,1.65399 -11.4921,5.51055 -15.73937,10.34956 -2.95371,4.82062 -4.75148,9.3899 -3.07184,14.98689 3.01113,5.03803 8.13438,8.09317 13.39175,10.3462 4.84113,1.78757 9.87319,2.0105 14.94943,1.58319 7.79973,-1.44646 -4.76506,0.90229 -8.9916,1.40082 -0.80125,0.0945 1.54112,-0.48187 2.29444,-0.77075 2.25366,-0.86422 4.33047,-2.01115 6.38873,-3.25579 3.60465,-2.02402 6.06267,-5.26462 8.15794,-8.73904 1.84614,-3.43932 2.70001,-7.06639 2.19649,-10.93012 -2.10265,-5.83387 -7.74984,-7.48939 -13.24838,-8.76708 -4.4709,-0.59416 -18.35076,1.83958 2.12172,-1.0346 0,0 -13.84207,0.36873 -13.84207,0.36873 l 0,0 c 8.70654,-1.72467 16.37451,-4.47657 25.01765,-3.29601 6.29667,1.69464 11.48838,3.73416 13.80598,10.34237 0.5866,4.16593 -0.18181,8.07514 -2.08833,11.84507 -1.99716,3.65644 -4.47847,7.2486 -8.12093,9.41826 -8.06348,5.35527 -17.22125,7.11252 -26.99214,7.83891 -5.16128,0.26177 -10.28195,-0.24441 -15.10035,-2.25746 -5.46805,-2.60886 -10.80312,-6.01575 -13.72726,-11.51254 -0.2186,-0.79406 -0.53238,-1.56787 -0.65579,-2.38217 -0.74201,-4.89583 1.3689,-9.79479 3.62555,-13.98233 4.17442,-5.01264 9.22149,-9.12956 15.50568,-11.20607 0,0 14.1227,-0.34604 14.1227,-0.34604 z"
       inkscape:connector-curvature="0" />
    <path
       style="opacity:1;fill:#ffffff;fill-opacity:1;fill-rule:nonzero;stroke:none;stroke-width:5.38100004;stroke-linecap:butt;stroke-linejoin:miter;stroke-miterlimit:4;stroke-dasharray:none;stroke-dashoffset:0;stroke-opacity:1"
       id="path4189-15-0"
       d="m -314.68059,612.05851 c -6.32731,1.65399 -11.4921,5.51055 -15.73937,10.34956 -2.95371,4.82062 -4.75148,9.3899 -3.07184,14.98689 3.01113,5.03803 8.13438,8.09317 13.39175,10.3462 4.84113,1.78757 9.87319,2.0105 14.94943,1.58319 7.79972,-1.44646 -4.76506,0.90229 -8.9916,1.40082 -0.80125,0.0945 1.54112,-0.48187 2.29444,-0.77075 2.25366,-0.86422 4.33047,-2.01115 6.38873,-3.25579 3.60464,-2.02402 6.06266,-5.26462 8.15793,-8.73904 1.84614,-3.43932 2.70001,-7.06639 2.19649,-10.93012 -2.10265,-5.83387 -7.74984,-7.48939 -13.24837,-8.76708 -4.4709,-0.59416 -18.35076,1.83958 2.12172,-1.0346 0,0 -13.84207,0.36873 -13.84207,0.36873 l 0,0 c 8.70654,-1.72467 16.3745,-4.47657 25.01764,-3.29601 6.29667,1.69464 11.48838,3.73416 13.80598,10.34237 0.5866,4.16593 -0.18181,8.07514 -2.08833,11.84507 -1.99716,3.65644 -4.47847,7.2486 -8.12093,9.41826 -8.06348,5.35527 -17.22124,7.11252 -26.99213,7.83891 -5.16128,0.26177 -10.28195,-0.24441 -15.10035,-2.25746 -5.46805,-2.60886 -10.80312,-6.01575 -13.72726,-11.51254 -0.2186,-0.79406 -0.53238,-1.56787 -0.65579,-2.38217 -0.74201,-4.89583 1.3689,-9.79479 3.62555,-13.98233 4.17442,-5.01264 9.22149,-9.12956 15.50568,-11.20607 0,0 14.1227,-0.34604 14.1227,-0.34604 z"
       inkscape:connector-curvature="0" />
    <path
       style="opacity:1;fill:#ffffff;fill-opacity:1;fill-rule:nonzero;stroke:none;stroke-width:5.38100004;stroke-linecap:butt;stroke-linejoin:miter;stroke-miterlimit:4;stroke-dasharray:none;stroke-dashoffset:0;stroke-opacity:1"
       id="path4193-9-5"
       d="m -310.06368,531.90187 c 0.57194,9.53362 0.73545,19.08383 0.87393,28.63142 0.0344,11.48415 0.36932,22.97458 0.0435,34.45591 -0.51722,6.96896 -0.35852,14.00309 -1.09502,20.95412 0,0 -13.89665,2.02209 -13.89665,2.02209 l 0,0 c 1.02043,-6.89409 0.81937,-13.94353 1.45343,-20.87663 0.41347,-11.46153 0.11919,-22.93625 0.0448,-34.40226 -0.17837,-9.48696 -0.3265,-18.99755 -1.32,-28.44152 0,0 13.89605,-2.34313 13.89605,-2.34313 z"
       inkscape:connector-curvature="0" />
    <path
       style="opacity:1;fill:#ffffff;fill-opacity:1;fill-rule:nonzero;stroke:none;stroke-width:5.38100004;stroke-linecap:butt;stroke-linejoin:miter;stroke-miterlimit:4;stroke-dasharray:none;stroke-dashoffset:0;stroke-opacity:1"
       id="path4193-9-5-2"
       d="m -413.49225,439.33043 c 0.57194,9.53362 0.73545,19.08383 0.87393,28.63142 0.0344,11.48415 0.36932,22.97458 0.0435,34.45591 -0.51722,6.96896 -0.35852,14.00309 -1.09502,20.95412 0,0 -13.89665,2.02209 -13.89665,2.02209 l 0,0 c 1.02043,-6.89409 0.81937,-13.94353 1.45343,-20.87663 0.41347,-11.46153 0.11919,-22.93625 0.0448,-34.40226 -0.17837,-9.48696 -0.3265,-18.99755 -1.32,-28.44152 0,0 13.89605,-2.34313 13.89605,-2.34313 z"
       inkscape:connector-curvature="0" />
    <path
       style="opacity:1;fill:#ffffff;fill-opacity:1;fill-rule:nonzero;stroke:none;stroke-width:5.38100004;stroke-linecap:butt;stroke-linejoin:miter;stroke-miterlimit:4;stroke-dasharray:none;stroke-dashoffset:0;stroke-opacity:1"
       id="path4189-15-1-3"
       d="m -417.25202,523.48707 c -6.32731,1.65399 -11.4921,5.51055 -15.73937,10.34956 -2.95371,4.82062 -4.75148,9.3899 -3.07184,14.98689 3.01113,5.03803 8.13438,8.09317 13.39175,10.3462 4.84113,1.78757 9.87319,2.0105 14.94943,1.58319 7.79972,-1.44646 -4.76506,0.90229 -8.9916,1.40082 -0.80125,0.0945 1.54112,-0.48187 2.29444,-0.77075 2.25366,-0.86422 4.33047,-2.01115 6.38873,-3.25579 3.60465,-2.02402 6.06266,-5.26462 8.15793,-8.73904 1.84614,-3.43932 2.70001,-7.06639 2.19649,-10.93012 -2.10265,-5.83387 -7.74983,-7.48939 -13.24837,-8.76708 -4.4709,-0.59416 -18.35076,1.83958 2.12172,-1.0346 0,0 -13.84207,0.36873 -13.84207,0.36873 l 0,0 c 8.70654,-1.72467 16.37451,-4.47657 25.01764,-3.29601 6.29667,1.69464 11.48838,3.73416 13.80598,10.34237 0.5866,4.16593 -0.18181,8.07514 -2.08833,11.84507 -1.99716,3.65644 -4.47847,7.2486 -8.12093,9.41826 -8.06348,5.35527 -17.22124,7.11252 -26.99213,7.83891 -5.16128,0.26177 -10.28195,-0.24441 -15.10035,-2.25746 -5.46805,-2.60886 -10.80312,-6.01575 -13.72726,-11.51254 -0.2186,-0.79406 -0.53238,-1.56787 -0.65579,-2.38217 -0.74201,-4.89583 1.3689,-9.79479 3.62555,-13.98233 4.17442,-5.01264 9.22149,-9.12956 15.50568,-11.20607 0,0 14.1227,-0.34604 14.1227,-0.34604 z"
       inkscape:connector-curvature="0" />
    <flowRoot
       xml:space="preserve"
       id="flowRoot4368-8-8-4-2"
       style="font-style:normal;font-weight:normal;font-size:40px;line-height:125%;font-family:sans-serif;letter-spacing:0px;word-spacing:0px;fill:#ffffff;fill-opacity:1;stroke:none;stroke-width:1px;stroke-linecap:butt;stroke-linejoin:miter;stroke-opacity:1"
       transform="translate(-223.60523,157.35346)"
       inkscape:export-xdpi="54.90102"
       inkscape:export-ydpi="54.90102"><flowRegion
         id="flowRegion4370-4-6-7-43"><rect
           id="rect4372-2-7-6-8"
           width="472.85712"
           height="32.857113"
           x="-111.42857"
           y="235.21935"
           style="fill:#ffffff;fill-opacity:1" /></flowRegion><flowPara
         style="font-style:normal;font-variant:normal;font-weight:bold;font-stretch:normal;font-size:22.5px;font-family:Aharoni;-inkscape-font-specification:'Aharoni Bold';fill:#ffffff;fill-opacity:1"
         id="flowPara4400-3-4-6">feature A</flowPara></flowRoot>    <flowRoot
       xml:space="preserve"
       id="flowRoot4368-8-8-4-0-5-6-0"
       style="font-style:normal;font-weight:normal;font-size:40px;line-height:125%;font-family:sans-serif;letter-spacing:0px;word-spacing:0px;fill:#ffffff;fill-opacity:1;stroke:none;stroke-width:1px;stroke-linecap:butt;stroke-linejoin:miter;stroke-opacity:1"
       transform="translate(-437.96374,296.52365)"
       inkscape:export-xdpi="54.90102"
       inkscape:export-ydpi="54.90102"><flowRegion
         id="flowRegion4370-4-6-7-4-4-3-4"><rect
           id="rect4372-2-7-6-3-3-7-2"
           width="472.85712"
           height="32.857113"
           x="-111.42857"
           y="235.21935"
           style="fill:#ffffff;fill-opacity:1" /></flowRegion><flowPara
         style="font-style:normal;font-variant:normal;font-weight:bold;font-stretch:normal;font-size:22.5px;font-family:Aharoni;-inkscape-font-specification:'Aharoni Bold';fill:#ffffff;fill-opacity:1"
         id="flowPara4400-3-4-2-3-5-2">5f893</flowPara></flowRoot>    <flowRoot
       xml:space="preserve"
       id="flowRoot4368-8-8-4-0-5-6-1"
       style="font-style:normal;font-weight:normal;font-size:40px;line-height:125%;font-family:sans-serif;letter-spacing:0px;word-spacing:0px;fill:#ffffff;fill-opacity:1;stroke:none;stroke-width:1px;stroke-linecap:butt;stroke-linejoin:miter;stroke-opacity:1"
       transform="translate(-145.1066,252.23793)"
       inkscape:export-xdpi="54.90102"
       inkscape:export-ydpi="54.90102"><flowRegion
         id="flowRegion4370-4-6-7-4-4-3-48"><rect
           id="rect4372-2-7-6-3-3-7-8"
           width="472.85712"
           height="32.857113"
           x="-111.42857"
           y="235.21935"
           style="fill:#ffffff;fill-opacity:1" /></flowRegion><flowPara
         style="font-style:normal;font-variant:normal;font-weight:bold;font-stretch:normal;font-size:22.5px;font-family:Aharoni;-inkscape-font-specification:'Aharoni Bold';fill:#ffffff;fill-opacity:1"
         id="flowPara4400-3-4-2-3-5-3">d5e61</flowPara></flowRoot>    <flowRoot
       xml:space="preserve"
       id="flowRoot4368-8-8-4-0-5-6-2"
       style="font-style:normal;font-weight:normal;font-size:40px;line-height:125%;font-family:sans-serif;letter-spacing:0px;word-spacing:0px;fill:#ffffff;fill-opacity:1;stroke:none;stroke-width:1px;stroke-linecap:butt;stroke-linejoin:miter;stroke-opacity:1"
       transform="translate(-142.24946,377.95222)"
       inkscape:export-xdpi="54.90102"
       inkscape:export-ydpi="54.90102"><flowRegion
         id="flowRegion4370-4-6-7-4-4-3-7"><rect
           id="rect4372-2-7-6-3-3-7-6"
           width="472.85712"
           height="32.857113"
           x="-111.42857"
           y="235.21935"
           style="fill:#ffffff;fill-opacity:1" /></flowRegion><flowPara
         style="font-style:normal;font-variant:normal;font-weight:bold;font-stretch:normal;font-size:22.5px;font-family:Aharoni;-inkscape-font-specification:'Aharoni Bold';fill:#ffffff;fill-opacity:1"
         id="flowPara4400-3-4-2-3-5-8">a91d2</flowPara></flowRoot>    <flowRoot
       xml:space="preserve"
       id="flowRoot4368-8-8-4-5"
       style="font-style:normal;font-weight:normal;font-size:40px;line-height:125%;font-family:sans-serif;letter-spacing:0px;word-spacing:0px;fill:#ffffff;fill-opacity:1;stroke:none;stroke-width:1px;stroke-linecap:butt;stroke-linejoin:miter;stroke-opacity:1"
       transform="translate(248.21818,-146.09644)"
       inkscape:export-xdpi="54.90102"
       inkscape:export-ydpi="54.90102"><flowRegion
         id="flowRegion4370-4-6-7-46"><rect
           id="rect4372-2-7-6-0"
           width="472.85712"
           height="32.857113"
           x="-111.42857"
           y="235.21935"
           style="fill:#ffffff;fill-opacity:1" /></flowRegion><flowPara
         style="font-style:normal;font-variant:normal;font-weight:bold;font-stretch:normal;font-size:22.5px;font-family:Aharoni;-inkscape-font-specification:'Aharoni Bold';fill:#ffffff;fill-opacity:1"
         id="flowPara4400-3-4-9">master</flowPara></flowRoot>    <path
       style="opacity:1;fill:#ffffff;fill-opacity:1;fill-rule:nonzero;stroke:none;stroke-width:5.38100004;stroke-linecap:butt;stroke-linejoin:miter;stroke-miterlimit:4;stroke-dasharray:none;stroke-dashoffset:0;stroke-opacity:1"
       id="path4189-2"
       d="m 182.08448,158.92241 c -6.32731,1.65399 -11.4921,5.51055 -15.73937,10.34956 -2.95371,4.82062 -4.75148,9.3899 -3.07184,14.98689 3.01113,5.03803 8.13438,8.09317 13.39175,10.3462 4.84113,1.78757 9.87319,2.0105 14.94943,1.58319 7.79973,-1.44646 -4.76506,0.90229 -8.9916,1.40082 -0.80125,0.0945 1.54112,-0.48187 2.29444,-0.77075 2.25366,-0.86422 4.33047,-2.01115 6.38873,-3.25579 3.60465,-2.02402 6.06267,-5.26462 8.15794,-8.73904 1.84614,-3.43932 2.70001,-7.06639 2.19649,-10.93012 -2.10265,-5.83387 -7.74984,-7.48939 -13.24838,-8.76708 -4.4709,-0.59416 -18.35076,1.83958 2.12172,-1.0346 0,0 -13.84207,0.36873 -13.84207,0.36873 l 0,0 c 8.70654,-1.72467 16.37451,-4.47657 25.01765,-3.29601 6.29667,1.69464 11.48838,3.73416 13.80598,10.34237 0.5866,4.16593 -0.18181,8.07514 -2.08833,11.84507 -1.99716,3.65644 -4.47847,7.2486 -8.12093,9.41826 -8.06348,5.35527 -17.22125,7.11252 -26.99214,7.83891 -5.16128,0.26177 -10.28195,-0.24441 -15.10035,-2.25746 -5.46805,-2.60886 -10.80312,-6.01575 -13.72726,-11.51254 -0.2186,-0.79406 -0.53238,-1.56787 -0.65579,-2.38217 -0.74201,-4.89583 1.3689,-9.79479 3.62555,-13.98233 4.17442,-5.01264 9.22149,-9.12956 15.50568,-11.20607 0,0 14.1227,-0.34604 14.1227,-0.34604 z"
       inkscape:connector-curvature="0" />
    <path
       style="opacity:1;fill:#ffffff;fill-opacity:1;fill-rule:nonzero;stroke:none;stroke-width:5.38100004;stroke-linecap:butt;stroke-linejoin:miter;stroke-miterlimit:4;stroke-dasharray:none;stroke-dashoffset:0;stroke-opacity:1"
       id="path4193-6"
       d="m 186.36623,198.71949 c 0.57194,9.53362 0.73545,19.08383 0.87393,28.63142 0.0344,11.48415 0.36932,22.97458 0.0435,34.45591 -0.51722,6.96896 -0.35852,14.00309 -1.09502,20.95412 0,0 -13.89665,2.02209 -13.89665,2.02209 l 0,0 c 1.02043,-6.89409 0.81937,-13.94353 1.45343,-20.87663 0.41347,-11.46153 0.11919,-22.93625 0.0448,-34.40226 -0.17837,-9.48696 -0.3265,-18.99755 -1.32,-28.44152 0,0 13.89605,-2.34313 13.89605,-2.34313 z"
       inkscape:connector-curvature="0" />
    <path
       style="opacity:1;fill:#ffffff;fill-opacity:1;fill-rule:nonzero;stroke:none;stroke-width:5.38100004;stroke-linecap:butt;stroke-linejoin:miter;stroke-miterlimit:4;stroke-dasharray:none;stroke-dashoffset:0;stroke-opacity:1"
       id="path4189-1-1"
       d="m 180.56673,280.16425 c -6.32731,1.65399 -11.4921,5.51055 -15.73937,10.34956 -2.95371,4.82062 -4.75148,9.3899 -3.07184,14.98689 3.01113,5.03803 8.13438,8.09317 13.39175,10.3462 4.84113,1.78757 9.87319,2.0105 14.94943,1.58319 7.79973,-1.44646 -4.76506,0.90229 -8.9916,1.40082 -0.80125,0.0945 1.54112,-0.48187 2.29444,-0.77075 2.25366,-0.86422 4.33047,-2.01115 6.38873,-3.25579 3.60465,-2.02402 6.06267,-5.26462 8.15794,-8.73904 1.84614,-3.43932 2.70001,-7.06639 2.19649,-10.93012 -2.10265,-5.83387 -7.74984,-7.48939 -13.24838,-8.76708 -4.4709,-0.59416 -18.35076,1.83958 2.12172,-1.0346 0,0 -13.84207,0.36873 -13.84207,0.36873 l 0,0 c 8.70654,-1.72467 16.37451,-4.47657 25.01765,-3.29601 6.29667,1.69464 11.48838,3.73416 13.80598,10.34237 0.5866,4.16593 -0.18181,8.07514 -2.08833,11.84507 -1.99716,3.65644 -4.47847,7.2486 -8.12093,9.41826 -8.06348,5.35527 -17.22125,7.11252 -26.99214,7.83891 -5.16128,0.26177 -10.28195,-0.24441 -15.10035,-2.25746 -5.46805,-2.60886 -10.80312,-6.01575 -13.72726,-11.51254 -0.2186,-0.79406 -0.53238,-1.56787 -0.65579,-2.38217 -0.74201,-4.89583 1.3689,-9.79479 3.62555,-13.98233 4.17442,-5.01264 9.22149,-9.12956 15.50568,-11.20607 0,0 14.1227,-0.34604 14.1227,-0.34604 z"
       inkscape:connector-curvature="0" />
    <path
       style="opacity:1;fill:#00a614;fill-opacity:1;fill-rule:nonzero;stroke:none;stroke-width:5.38100004;stroke-linecap:butt;stroke-linejoin:miter;stroke-miterlimit:4;stroke-dasharray:none;stroke-dashoffset:0;stroke-opacity:1"
       id="path4189-15-2"
       d="m 179.13816,400.73568 c -6.32731,1.65399 -11.4921,5.51055 -15.73937,10.34956 -2.95371,4.82062 -4.75148,9.3899 -3.07184,14.98689 3.01113,5.03803 8.13438,8.09317 13.39175,10.3462 4.84113,1.78757 9.87319,2.0105 14.94943,1.58319 7.79973,-1.44646 -4.76506,0.90229 -8.9916,1.40082 -0.80125,0.0945 1.54112,-0.48187 2.29444,-0.77075 2.25366,-0.86422 4.33047,-2.01115 6.38873,-3.25579 3.60465,-2.02402 6.06267,-5.26462 8.15794,-8.73904 1.84614,-3.43932 2.70001,-7.06639 2.19649,-10.93012 -2.10265,-5.83387 -7.74984,-7.48939 -13.24838,-8.76708 -4.4709,-0.59416 -18.35076,1.83958 2.12172,-1.0346 0,0 -13.84207,0.36873 -13.84207,0.36873 l 0,0 c 8.70654,-1.72467 16.37451,-4.47657 25.01765,-3.29601 6.29667,1.69464 11.48838,3.73416 13.80598,10.34237 0.5866,4.16593 -0.18181,8.07514 -2.08833,11.84507 -1.99716,3.65644 -4.47847,7.2486 -8.12093,9.41826 -8.06348,5.35527 -17.22125,7.11252 -26.99214,7.83891 -5.16128,0.26177 -10.28195,-0.24441 -15.10035,-2.25746 -5.46805,-2.60886 -10.80312,-6.01575 -13.72726,-11.51254 -0.2186,-0.79406 -0.53238,-1.56787 -0.65579,-2.38217 -0.74201,-4.89583 1.3689,-9.79479 3.62555,-13.98233 4.17442,-5.01264 9.22149,-9.12956 15.50568,-11.20607 0,0 14.1227,-0.34604 14.1227,-0.34604 z"
       inkscape:connector-curvature="0" />
    <path
       style="opacity:1;fill:#ffffff;fill-opacity:1;fill-rule:nonzero;stroke:none;stroke-width:5.38100004;stroke-linecap:butt;stroke-linejoin:miter;stroke-miterlimit:4;stroke-dasharray:none;stroke-dashoffset:0;stroke-opacity:1"
       id="path4193-9-6"
       d="m 185.75507,316.57904 c 0.57194,9.53362 0.73545,19.08383 0.87393,28.63142 0.0344,11.48415 0.36932,22.97458 0.0435,34.45591 -0.51722,6.96896 -0.35852,14.00309 -1.09502,20.95412 0,0 -13.89665,2.02209 -13.89665,2.02209 l 0,0 c 1.02043,-6.89409 0.81937,-13.94353 1.45343,-20.87663 0.41347,-11.46153 0.11919,-22.93625 0.0448,-34.40226 -0.17837,-9.48696 -0.3265,-18.99755 -1.32,-28.44152 0,0 13.89605,-2.34313 13.89605,-2.34313 z"
       inkscape:connector-curvature="0" />
    <flowRoot
       xml:space="preserve"
       id="flowRoot4368-8-8-4-0-6"
       style="font-style:normal;font-weight:normal;font-size:40px;line-height:125%;font-family:sans-serif;letter-spacing:0px;word-spacing:0px;fill:#ffffff;fill-opacity:1;stroke:none;stroke-width:1px;stroke-linecap:butt;stroke-linejoin:miter;stroke-opacity:1"
       transform="translate(169.92782,-71.11222)"
       inkscape:export-xdpi="54.90102"
       inkscape:export-ydpi="54.90102"><flowRegion
         id="flowRegion4370-4-6-7-4-2"><rect
           id="rect4372-2-7-6-3-5"
           width="472.85712"
           height="32.857113"
           x="-111.42857"
           y="235.21935"
           style="fill:#ffffff;fill-opacity:1" /></flowRegion><flowPara
         style="font-style:normal;font-variant:normal;font-weight:bold;font-stretch:normal;font-size:22.5px;font-family:Aharoni;-inkscape-font-specification:'Aharoni Bold';fill:#ffffff;fill-opacity:1"
         id="flowPara4400-3-4-2-2">e45f7</flowPara></flowRoot>    <flowRoot
       xml:space="preserve"
       id="flowRoot4368-8-8-4-0-5-64"
       style="font-style:normal;font-weight:normal;font-size:40px;line-height:125%;font-family:sans-serif;letter-spacing:0px;word-spacing:0px;fill:#ffffff;fill-opacity:1;stroke:none;stroke-width:1px;stroke-linecap:butt;stroke-linejoin:miter;stroke-opacity:1"
       transform="translate(165.22793,46.30529)"
       inkscape:export-xdpi="54.90102"
       inkscape:export-ydpi="54.90102"><flowRegion
         id="flowRegion4370-4-6-7-4-4-0"><rect
           id="rect4372-2-7-6-3-3-9"
           width="472.85712"
           height="32.857113"
           x="-111.42857"
           y="235.21935"
           style="fill:#ffffff;fill-opacity:1" /></flowRegion><flowPara
         style="font-style:normal;font-variant:normal;font-weight:bold;font-stretch:normal;font-size:22.5px;font-family:Aharoni;-inkscape-font-specification:'Aharoni Bold';fill:#ffffff;fill-opacity:1"
         id="flowPara4400-3-4-2-3-6">c2d52</flowPara></flowRoot>    <flowRoot
       xml:space="preserve"
       id="flowRoot4368-8-8-4-0-5-6-03"
       style="font-style:normal;font-weight:normal;font-size:40px;line-height:125%;font-family:sans-serif;letter-spacing:0px;word-spacing:0px;fill:#ffffff;fill-opacity:1;stroke:none;stroke-width:1px;stroke-linecap:butt;stroke-linejoin:miter;stroke-opacity:1"
       transform="translate(161.283,167.87119)"
       inkscape:export-xdpi="54.90102"
       inkscape:export-ydpi="54.90102"><flowRegion
         id="flowRegion4370-4-6-7-4-4-3-49"><rect
           id="rect4372-2-7-6-3-3-7-83"
           width="472.85712"
           height="32.857113"
           x="-111.42857"
           y="235.21935"
           style="fill:#ffffff;fill-opacity:1" /></flowRegion><flowPara
         style="font-style:normal;font-variant:normal;font-weight:bold;font-stretch:normal;font-size:22.5px;font-family:Aharoni;-inkscape-font-specification:'Aharoni Bold';fill:#ffffff;fill-opacity:1"
         id="flowPara4400-3-4-2-3-5-0">1c3b8</flowPara></flowRoot>    <path
       style="opacity:1;fill:#ff0000;fill-opacity:1;fill-rule:nonzero;stroke:none;stroke-width:5.38100004;stroke-linecap:butt;stroke-linejoin:miter;stroke-miterlimit:4;stroke-dasharray:none;stroke-dashoffset:0;stroke-opacity:1"
       id="path4189-15-1-6"
       d="m 281.70959,493.59282 c -6.32731,1.65399 -11.4921,5.51055 -15.73937,10.34956 -2.95371,4.82062 -4.75148,9.3899 -3.07184,14.98689 3.01113,5.03803 8.13438,8.09317 13.39175,10.3462 4.84113,1.78757 9.87319,2.0105 14.94943,1.58319 7.79972,-1.44646 -4.76506,0.90229 -8.9916,1.40082 -0.80125,0.0945 1.54112,-0.48187 2.29444,-0.77075 2.25366,-0.86422 4.33047,-2.01115 6.38873,-3.25579 3.60465,-2.02402 6.06266,-5.26462 8.15793,-8.73904 1.84614,-3.43932 2.70001,-7.06639 2.19649,-10.93012 -2.10265,-5.83387 -7.74983,-7.48939 -13.24837,-8.76708 -4.4709,-0.59416 -18.35076,1.83958 2.12172,-1.0346 0,0 -13.84207,0.36873 -13.84207,0.36873 l 0,0 c 8.70654,-1.72467 16.37451,-4.47657 25.01764,-3.29601 6.29667,1.69464 11.48838,3.73416 13.80598,10.34237 0.5866,4.16593 -0.18181,8.07514 -2.08833,11.84507 -1.99716,3.65644 -4.47847,7.2486 -8.12093,9.41826 -8.06348,5.35527 -17.22124,7.11252 -26.99213,7.83891 -5.16128,0.26177 -10.28195,-0.24441 -15.10035,-2.25746 -5.46805,-2.60886 -10.80312,-6.01575 -13.72726,-11.51254 -0.2186,-0.79406 -0.53238,-1.56787 -0.65579,-2.38217 -0.74201,-4.89583 1.3689,-9.79479 3.62555,-13.98233 4.17442,-5.01264 9.22149,-9.12956 15.50568,-11.20607 0,0 14.1227,-0.34604 14.1227,-0.34604 z"
       inkscape:connector-curvature="0" />
    <path
       style="opacity:1;fill:#f1ff00;fill-opacity:1;fill-rule:nonzero;stroke:none;stroke-width:5.38100004;stroke-linecap:butt;stroke-linejoin:miter;stroke-miterlimit:4;stroke-dasharray:none;stroke-dashoffset:0;stroke-opacity:1"
       id="path4189-15-0-4"
       d="m 280.28102,615.0214 c -6.32731,1.65399 -11.4921,5.51055 -15.73937,10.34956 -2.95371,4.82062 -4.75148,9.3899 -3.07184,14.98689 3.01113,5.03803 8.13438,8.09317 13.39175,10.3462 4.84113,1.78757 9.87319,2.0105 14.94943,1.58319 7.79972,-1.44646 -4.76506,0.90229 -8.9916,1.40082 -0.80125,0.0945 1.54112,-0.48187 2.29444,-0.77075 2.25366,-0.86422 4.33047,-2.01115 6.38873,-3.25579 3.60464,-2.02402 6.06266,-5.26462 8.15793,-8.73904 1.84614,-3.43932 2.70001,-7.06639 2.19649,-10.93012 -2.10265,-5.83387 -7.74984,-7.48939 -13.24837,-8.76708 -4.4709,-0.59416 -18.35076,1.83958 2.12172,-1.0346 0,0 -13.84207,0.36873 -13.84207,0.36873 l 0,0 c 8.70654,-1.72467 16.3745,-4.47657 25.01764,-3.29601 6.29667,1.69464 11.48838,3.73416 13.80598,10.34237 0.5866,4.16593 -0.18181,8.07514 -2.08833,11.84507 -1.99716,3.65644 -4.47847,7.2486 -8.12093,9.41826 -8.06348,5.35527 -17.22124,7.11252 -26.99213,7.83891 -5.16128,0.26177 -10.28195,-0.24441 -15.10035,-2.25746 -5.46805,-2.60886 -10.80312,-6.01575 -13.72726,-11.51254 -0.2186,-0.79406 -0.53238,-1.56787 -0.65579,-2.38217 -0.74201,-4.89583 1.3689,-9.79479 3.62555,-13.98233 4.17442,-5.01264 9.22149,-9.12956 15.50568,-11.20607 0,0 14.1227,-0.34604 14.1227,-0.34604 z"
       inkscape:connector-curvature="0" />
    <path
       style="opacity:1;fill:#ffffff;fill-opacity:1;fill-rule:nonzero;stroke:none;stroke-width:5.38100004;stroke-linecap:butt;stroke-linejoin:miter;stroke-miterlimit:4;stroke-dasharray:none;stroke-dashoffset:0;stroke-opacity:1"
       id="path4193-9-5-1"
       d="m 284.89793,534.86476 c 0.57194,9.53362 0.73545,19.08383 0.87393,28.63142 0.0344,11.48415 0.36932,22.97458 0.0435,34.45591 -0.51722,6.96896 -0.35852,14.00309 -1.09502,20.95412 0,0 -13.89665,2.02209 -13.89665,2.02209 l 0,0 c 1.02043,-6.89409 0.81937,-13.94353 1.45343,-20.87663 0.41347,-11.46153 0.11919,-22.93625 0.0448,-34.40226 -0.17837,-9.48696 -0.3265,-18.99755 -1.32,-28.44152 0,0 13.89605,-2.34313 13.89605,-2.34313 z"
       inkscape:connector-curvature="0" />
    <path
       style="opacity:1;fill:#ffffff;fill-opacity:1;fill-rule:nonzero;stroke:none;stroke-width:5.38100004;stroke-linecap:butt;stroke-linejoin:miter;stroke-miterlimit:4;stroke-dasharray:none;stroke-dashoffset:0;stroke-opacity:1"
       id="path4193-9-5-2-0"
       d="m 181.46936,442.29332 c 0.57194,9.53362 0.73545,19.08383 0.87393,28.63142 0.0344,11.48415 0.36932,22.97458 0.0435,34.45591 -0.51722,6.96896 -0.35852,14.00309 -1.09502,20.95412 0,0 -13.89665,2.02209 -13.89665,2.02209 l 0,0 c 1.02043,-6.89409 0.81937,-13.94353 1.45343,-20.87663 0.41347,-11.46153 0.11919,-22.93625 0.0448,-34.40226 -0.17837,-9.48696 -0.3265,-18.99755 -1.32,-28.44152 0,0 13.89605,-2.34313 13.89605,-2.34313 z"
       inkscape:connector-curvature="0" />
    <path
       style="opacity:1;fill:#3966ff;fill-opacity:1;fill-rule:nonzero;stroke:none;stroke-width:5.38100004;stroke-linecap:butt;stroke-linejoin:miter;stroke-miterlimit:4;stroke-dasharray:none;stroke-dashoffset:0;stroke-opacity:1"
       id="path4189-15-1-3-7"
       d="m 177.70959,526.44996 c -6.32731,1.65399 -11.4921,5.51055 -15.73937,10.34956 -2.95371,4.82062 -4.75148,9.3899 -3.07184,14.98689 3.01113,5.03803 8.13438,8.09317 13.39175,10.3462 4.84113,1.78757 9.87319,2.0105 14.94943,1.58319 7.79972,-1.44646 -4.76506,0.90229 -8.9916,1.40082 -0.80125,0.0945 1.54112,-0.48187 2.29444,-0.77075 2.25366,-0.86422 4.33047,-2.01115 6.38873,-3.25579 3.60465,-2.02402 6.06266,-5.26462 8.15793,-8.73904 1.84614,-3.43932 2.70001,-7.06639 2.19649,-10.93012 -2.10265,-5.83387 -7.74983,-7.48939 -13.24837,-8.76708 -4.4709,-0.59416 -18.35076,1.83958 2.12172,-1.0346 0,0 -13.84207,0.36873 -13.84207,0.36873 l 0,0 c 8.70654,-1.72467 16.37451,-4.47657 25.01764,-3.29601 6.29667,1.69464 11.48838,3.73416 13.80598,10.34237 0.5866,4.16593 -0.18181,8.07514 -2.08833,11.84507 -1.99716,3.65644 -4.47847,7.2486 -8.12093,9.41826 -8.06348,5.35527 -17.22124,7.11252 -26.99213,7.83891 -5.16128,0.26177 -10.28195,-0.24441 -15.10035,-2.25746 -5.46805,-2.60886 -10.80312,-6.01575 -13.72726,-11.51254 -0.2186,-0.79406 -0.53238,-1.56787 -0.65579,-2.38217 -0.74201,-4.89583 1.3689,-9.79479 3.62555,-13.98233 4.17442,-5.01264 9.22149,-9.12956 15.50568,-11.20607 0,0 14.1227,-0.34604 14.1227,-0.34604 z"
       inkscape:connector-curvature="0" />
    <flowRoot
       xml:space="preserve"
       id="flowRoot4368-8-8-4-2-9"
       style="font-style:normal;font-weight:normal;font-size:40px;line-height:125%;font-family:sans-serif;letter-spacing:0px;word-spacing:0px;fill:#ffffff;fill-opacity:1;stroke:none;stroke-width:1px;stroke-linecap:butt;stroke-linejoin:miter;stroke-opacity:1"
       transform="translate(371.35638,160.31635)"
       inkscape:export-xdpi="54.90102"
       inkscape:export-ydpi="54.90102"><flowRegion
         id="flowRegion4370-4-6-7-43-2"><rect
           id="rect4372-2-7-6-8-1"
           width="472.85712"
           height="32.857113"
           x="-111.42857"
           y="235.21935"
           style="fill:#ffffff;fill-opacity:1" /></flowRegion><flowPara
         style="font-style:normal;font-variant:normal;font-weight:bold;font-stretch:normal;font-size:22.5px;font-family:Aharoni;-inkscape-font-specification:'Aharoni Bold';fill:#ffffff;fill-opacity:1"
         id="flowPara4400-3-4-6-4">feature A</flowPara></flowRoot>    <flowRoot
       xml:space="preserve"
       id="flowRoot4368-8-8-4-0-5-6-0-1"
       style="font-style:normal;font-weight:normal;font-size:40px;line-height:125%;font-family:sans-serif;letter-spacing:0px;word-spacing:0px;fill:#ffffff;fill-opacity:1;stroke:none;stroke-width:1px;stroke-linecap:butt;stroke-linejoin:miter;stroke-opacity:1"
       transform="translate(156.99787,299.48654)"
       inkscape:export-xdpi="54.90102"
       inkscape:export-ydpi="54.90102"><flowRegion
         id="flowRegion4370-4-6-7-4-4-3-4-5"><rect
           id="rect4372-2-7-6-3-3-7-2-8"
           width="472.85712"
           height="32.857113"
           x="-111.42857"
           y="235.21935"
           style="fill:#ffffff;fill-opacity:1" /></flowRegion><flowPara
         style="font-style:normal;font-variant:normal;font-weight:bold;font-stretch:normal;font-size:22.5px;font-family:Aharoni;-inkscape-font-specification:'Aharoni Bold';fill:#ffffff;fill-opacity:1"
         id="flowPara4400-3-4-2-3-5-2-3">5f893</flowPara></flowRoot>    <flowRoot
       xml:space="preserve"
       id="flowRoot4368-8-8-4-0-5-6-1-3"
       style="font-style:normal;font-weight:normal;font-size:40px;line-height:125%;font-family:sans-serif;letter-spacing:0px;word-spacing:0px;fill:#ffffff;fill-opacity:1;stroke:none;stroke-width:1px;stroke-linecap:butt;stroke-linejoin:miter;stroke-opacity:1"
       transform="translate(449.855,255.20082)"
       inkscape:export-xdpi="54.90102"
       inkscape:export-ydpi="54.90102"><flowRegion
         id="flowRegion4370-4-6-7-4-4-3-48-3"><rect
           id="rect4372-2-7-6-3-3-7-8-7"
           width="472.85712"
           height="32.857113"
           x="-111.42857"
           y="235.21935"
           style="fill:#ffffff;fill-opacity:1" /></flowRegion><flowPara
         style="font-style:normal;font-variant:normal;font-weight:bold;font-stretch:normal;font-size:22.5px;font-family:Aharoni;-inkscape-font-specification:'Aharoni Bold';fill:#ffffff;fill-opacity:1"
         id="flowPara4400-3-4-2-3-5-3-3">d5e61</flowPara></flowRoot>    <flowRoot
       xml:space="preserve"
       id="flowRoot4368-8-8-4-0-5-6-2-4"
       style="font-style:normal;font-weight:normal;font-size:40px;line-height:125%;font-family:sans-serif;letter-spacing:0px;word-spacing:0px;fill:#ffffff;fill-opacity:1;stroke:none;stroke-width:1px;stroke-linecap:butt;stroke-linejoin:miter;stroke-opacity:1"
       transform="translate(452.71215,380.91511)"
       inkscape:export-xdpi="54.90102"
       inkscape:export-ydpi="54.90102"><flowRegion
         id="flowRegion4370-4-6-7-4-4-3-7-4"><rect
           id="rect4372-2-7-6-3-3-7-6-7"
           width="472.85712"
           height="32.857113"
           x="-111.42857"
           y="235.21935"
           style="fill:#ffffff;fill-opacity:1" /></flowRegion><flowPara
         style="font-style:normal;font-variant:normal;font-weight:bold;font-stretch:normal;font-size:22.5px;font-family:Aharoni;-inkscape-font-specification:'Aharoni Bold';fill:#ffffff;fill-opacity:1"
         id="flowPara4400-3-4-2-3-5-8-6">a91d2</flowPara></flowRoot>    <flowRoot
       xml:space="preserve"
       id="flowRoot4368-8-8-4-5-0"
       style="font-style:normal;font-weight:normal;font-size:40px;line-height:125%;font-family:sans-serif;letter-spacing:0px;word-spacing:0px;fill:#ffffff;fill-opacity:1;stroke:none;stroke-width:1px;stroke-linecap:butt;stroke-linejoin:miter;stroke-opacity:1"
       transform="translate(815.07533,-140.38215)"
       inkscape:export-xdpi="54.90102"
       inkscape:export-ydpi="54.90102"><flowRegion
         id="flowRegion4370-4-6-7-46-8"><rect
           id="rect4372-2-7-6-0-1"
           width="472.85712"
           height="32.857113"
           x="-111.42857"
           y="235.21935"
           style="fill:#ffffff;fill-opacity:1" /></flowRegion><flowPara
         style="font-style:normal;font-variant:normal;font-weight:bold;font-stretch:normal;font-size:22.5px;font-family:Aharoni;-inkscape-font-specification:'Aharoni Bold';fill:#ffffff;fill-opacity:1"
         id="flowPara4400-3-4-9-6">master</flowPara></flowRoot>    <path
       style="opacity:1;fill:#ffffff;fill-opacity:1;fill-rule:nonzero;stroke:none;stroke-width:5.38100004;stroke-linecap:butt;stroke-linejoin:miter;stroke-miterlimit:4;stroke-dasharray:none;stroke-dashoffset:0;stroke-opacity:1"
       id="path4189-2-7"
       d="m 748.94163,164.6367 c -6.32731,1.65399 -11.4921,5.51055 -15.73937,10.34956 -2.95371,4.82062 -4.75148,9.3899 -3.07184,14.98689 3.01113,5.03803 8.13438,8.09317 13.39175,10.3462 4.84113,1.78757 9.87319,2.0105 14.94943,1.58319 7.79973,-1.44646 -4.76506,0.90229 -8.9916,1.40082 -0.80125,0.0945 1.54112,-0.48187 2.29444,-0.77075 2.25366,-0.86422 4.33047,-2.01115 6.38873,-3.25579 3.60465,-2.02402 6.06267,-5.26462 8.15794,-8.73904 1.84614,-3.43932 2.70001,-7.06639 2.19649,-10.93012 -2.10265,-5.83387 -7.74984,-7.48939 -13.24838,-8.76708 -4.4709,-0.59416 -18.35076,1.83958 2.12172,-1.0346 0,0 -13.84207,0.36873 -13.84207,0.36873 l 0,0 c 8.70654,-1.72467 16.37451,-4.47657 25.01765,-3.29601 6.29667,1.69464 11.48838,3.73416 13.80598,10.34237 0.5866,4.16593 -0.18181,8.07514 -2.08833,11.84507 -1.99716,3.65644 -4.47847,7.2486 -8.12093,9.41826 -8.06348,5.35527 -17.22125,7.11252 -26.99214,7.83891 -5.16128,0.26177 -10.28195,-0.24441 -15.10035,-2.25746 -5.46805,-2.60886 -10.80312,-6.01575 -13.72726,-11.51254 -0.2186,-0.79406 -0.53238,-1.56787 -0.65579,-2.38217 -0.74201,-4.89583 1.3689,-9.79479 3.62555,-13.98233 4.17442,-5.01264 9.22149,-9.12956 15.50568,-11.20607 0,0 14.1227,-0.34604 14.1227,-0.34604 z"
       inkscape:connector-curvature="0" />
    <path
       style="opacity:1;fill:#ffffff;fill-opacity:1;fill-rule:nonzero;stroke:none;stroke-width:5.38100004;stroke-linecap:butt;stroke-linejoin:miter;stroke-miterlimit:4;stroke-dasharray:none;stroke-dashoffset:0;stroke-opacity:1"
       id="path4193-6-4"
       d="m 753.22338,204.43378 c 0.57194,9.53362 0.73545,19.08383 0.87393,28.63142 0.0344,11.48415 0.36932,22.97458 0.0435,34.45591 -0.51722,6.96896 -0.35852,14.00309 -1.09502,20.95412 0,0 -13.89665,2.02209 -13.89665,2.02209 l 0,0 c 1.02043,-6.89409 0.81937,-13.94353 1.45343,-20.87663 0.41347,-11.46153 0.11919,-22.93625 0.0448,-34.40226 -0.17837,-9.48696 -0.3265,-18.99755 -1.32,-28.44152 0,0 13.89605,-2.34313 13.89605,-2.34313 z"
       inkscape:connector-curvature="0" />
    <path
       style="opacity:1;fill:#ffffff;fill-opacity:1;fill-rule:nonzero;stroke:none;stroke-width:5.38100004;stroke-linecap:butt;stroke-linejoin:miter;stroke-miterlimit:4;stroke-dasharray:none;stroke-dashoffset:0;stroke-opacity:1"
       id="path4189-1-1-9"
       d="m 747.42388,285.87854 c -6.32731,1.65399 -11.4921,5.51055 -15.73937,10.34956 -2.95371,4.82062 -4.75148,9.3899 -3.07184,14.98689 3.01113,5.03803 8.13438,8.09317 13.39175,10.3462 4.84113,1.78757 9.87319,2.0105 14.94943,1.58319 7.79973,-1.44646 -4.76506,0.90229 -8.9916,1.40082 -0.80125,0.0945 1.54112,-0.48187 2.29444,-0.77075 2.25366,-0.86422 4.33047,-2.01115 6.38873,-3.25579 3.60465,-2.02402 6.06267,-5.26462 8.15794,-8.73904 1.84614,-3.43932 2.70001,-7.06639 2.19649,-10.93012 -2.10265,-5.83387 -7.74984,-7.48939 -13.24838,-8.76708 -4.4709,-0.59416 -18.35076,1.83958 2.12172,-1.0346 0,0 -13.84207,0.36873 -13.84207,0.36873 l 0,0 c 8.70654,-1.72467 16.37451,-4.47657 25.01765,-3.29601 6.29667,1.69464 11.48838,3.73416 13.80598,10.34237 0.5866,4.16593 -0.18181,8.07514 -2.08833,11.84507 -1.99716,3.65644 -4.47847,7.2486 -8.12093,9.41826 -8.06348,5.35527 -17.22125,7.11252 -26.99214,7.83891 -5.16128,0.26177 -10.28195,-0.24441 -15.10035,-2.25746 -5.46805,-2.60886 -10.80312,-6.01575 -13.72726,-11.51254 -0.2186,-0.79406 -0.53238,-1.56787 -0.6558,-2.38217 -0.74201,-4.89583 1.36891,-9.79479 3.62556,-13.98233 4.17442,-5.01264 9.22149,-9.12956 15.50568,-11.20607 0,0 14.1227,-0.34604 14.1227,-0.34604 z"
       inkscape:connector-curvature="0" />
    <path
       style="opacity:1;fill:#00a614;fill-opacity:1;fill-rule:nonzero;stroke:none;stroke-width:5.38100004;stroke-linecap:butt;stroke-linejoin:miter;stroke-miterlimit:4;stroke-dasharray:none;stroke-dashoffset:0;stroke-opacity:1"
       id="path4189-15-2-5"
       d="m 745.99531,406.44997 c -6.32731,1.65399 -11.4921,5.51055 -15.73937,10.34956 -2.95371,4.82062 -4.75148,9.3899 -3.07184,14.98689 3.01113,5.03803 8.13438,8.09317 13.39175,10.3462 4.84113,1.78757 9.87319,2.0105 14.94943,1.58319 7.79973,-1.44646 -4.76506,0.90229 -8.9916,1.40082 -0.80125,0.0945 1.54112,-0.48187 2.29444,-0.77075 2.25366,-0.86422 4.33047,-2.01115 6.38873,-3.25579 3.60465,-2.02402 6.06267,-5.26462 8.15794,-8.73904 1.84614,-3.43932 2.70001,-7.06639 2.19649,-10.93012 -2.10265,-5.83387 -7.74984,-7.48939 -13.24838,-8.76708 -4.4709,-0.59416 -18.35076,1.83958 2.12172,-1.0346 0,0 -13.84207,0.36873 -13.84207,0.36873 l 0,0 c 8.70654,-1.72467 16.37451,-4.47657 25.01765,-3.29601 6.29667,1.69464 11.48838,3.73416 13.80598,10.34237 0.5866,4.16593 -0.18181,8.07514 -2.08833,11.84507 -1.99716,3.65644 -4.47847,7.2486 -8.12093,9.41826 -8.06348,5.35527 -17.22125,7.11252 -26.99214,7.83891 -5.16128,0.26177 -10.28195,-0.24441 -15.10035,-2.25746 -5.46805,-2.60886 -10.80312,-6.01575 -13.72727,-11.51254 -0.2186,-0.79406 -0.53238,-1.56787 -0.65579,-2.38217 -0.74201,-4.89583 1.3689,-9.79479 3.62556,-13.98233 4.17442,-5.01264 9.22149,-9.12956 15.50568,-11.20607 0,0 14.1227,-0.34604 14.1227,-0.34604 z"
       inkscape:connector-curvature="0" />
    <path
       style="opacity:1;fill:#ffffff;fill-opacity:1;fill-rule:nonzero;stroke:none;stroke-width:5.38100004;stroke-linecap:butt;stroke-linejoin:miter;stroke-miterlimit:4;stroke-dasharray:none;stroke-dashoffset:0;stroke-opacity:1"
       id="path4193-9-6-5"
       d="m 752.61222,322.29333 c 0.57194,9.53362 0.73545,19.08383 0.87393,28.63142 0.0344,11.48415 0.36932,22.97458 0.0435,34.45591 -0.51722,6.96896 -0.35852,14.00309 -1.09502,20.95412 0,0 -13.89665,2.02209 -13.89665,2.02209 l 0,0 c 1.02043,-6.89409 0.81937,-13.94353 1.45343,-20.87663 0.41347,-11.46153 0.11919,-22.93625 0.0448,-34.40226 -0.17837,-9.48696 -0.3265,-18.99755 -1.32,-28.44152 0,0 13.89605,-2.34313 13.89605,-2.34313 z"
       inkscape:connector-curvature="0" />
    <flowRoot
       xml:space="preserve"
       id="flowRoot4368-8-8-4-0-6-1"
       style="font-style:normal;font-weight:normal;font-size:40px;line-height:125%;font-family:sans-serif;letter-spacing:0px;word-spacing:0px;fill:#ffffff;fill-opacity:1;stroke:none;stroke-width:1px;stroke-linecap:butt;stroke-linejoin:miter;stroke-opacity:1"
       transform="translate(736.78497,-65.397934)"
       inkscape:export-xdpi="54.90102"
       inkscape:export-ydpi="54.90102"><flowRegion
         id="flowRegion4370-4-6-7-4-2-3"><rect
           id="rect4372-2-7-6-3-5-0"
           width="472.85712"
           height="32.857113"
           x="-111.42857"
           y="235.21935"
           style="fill:#ffffff;fill-opacity:1" /></flowRegion><flowPara
         style="font-style:normal;font-variant:normal;font-weight:bold;font-stretch:normal;font-size:22.5px;font-family:Aharoni;-inkscape-font-specification:'Aharoni Bold';fill:#ffffff;fill-opacity:1"
         id="flowPara4400-3-4-2-2-1">e45f7</flowPara></flowRoot>    <flowRoot
       xml:space="preserve"
       id="flowRoot4368-8-8-4-0-5-64-8"
       style="font-style:normal;font-weight:normal;font-size:40px;line-height:125%;font-family:sans-serif;letter-spacing:0px;word-spacing:0px;fill:#ffffff;fill-opacity:1;stroke:none;stroke-width:1px;stroke-linecap:butt;stroke-linejoin:miter;stroke-opacity:1"
       transform="translate(732.08508,52.019576)"
       inkscape:export-xdpi="54.90102"
       inkscape:export-ydpi="54.90102"><flowRegion
         id="flowRegion4370-4-6-7-4-4-0-6"><rect
           id="rect4372-2-7-6-3-3-9-6"
           width="472.85712"
           height="32.857113"
           x="-111.42857"
           y="235.21935"
           style="fill:#ffffff;fill-opacity:1" /></flowRegion><flowPara
         style="font-style:normal;font-variant:normal;font-weight:bold;font-stretch:normal;font-size:22.5px;font-family:Aharoni;-inkscape-font-specification:'Aharoni Bold';fill:#ffffff;fill-opacity:1"
         id="flowPara4400-3-4-2-3-6-8">c2d52</flowPara></flowRoot>    <flowRoot
       xml:space="preserve"
       id="flowRoot4368-8-8-4-0-5-6-03-1"
       style="font-style:normal;font-weight:normal;font-size:40px;line-height:125%;font-family:sans-serif;letter-spacing:0px;word-spacing:0px;fill:#ffffff;fill-opacity:1;stroke:none;stroke-width:1px;stroke-linecap:butt;stroke-linejoin:miter;stroke-opacity:1"
       transform="translate(728.14015,173.58548)"
       inkscape:export-xdpi="54.90102"
       inkscape:export-ydpi="54.90102"><flowRegion
         id="flowRegion4370-4-6-7-4-4-3-49-4"><rect
           id="rect4372-2-7-6-3-3-7-83-5"
           width="472.85712"
           height="32.857113"
           x="-111.42857"
           y="235.21935"
           style="fill:#ffffff;fill-opacity:1" /></flowRegion><flowPara
         style="font-style:normal;font-variant:normal;font-weight:bold;font-stretch:normal;font-size:22.5px;font-family:Aharoni;-inkscape-font-specification:'Aharoni Bold';fill:#ffffff;fill-opacity:1"
         id="flowPara4400-3-4-2-3-5-0-7">1c3b8</flowPara></flowRoot>    <path
       style="opacity:1;fill:#ffffff;fill-opacity:1;fill-rule:nonzero;stroke:none;stroke-width:5.38100004;stroke-linecap:butt;stroke-linejoin:miter;stroke-miterlimit:4;stroke-dasharray:none;stroke-dashoffset:0;stroke-opacity:1"
       id="path4193-9-5-2-0-7"
       d="m 748.32651,448.00761 c 0.57194,9.53362 0.73545,19.08383 0.87393,28.63142 0.0344,11.48415 0.36932,22.97458 0.0435,34.45591 -0.51722,6.96896 -0.35852,14.00309 -1.09502,20.95412 0,0 -13.89665,2.02209 -13.89665,2.02209 l 0,0 c 1.02043,-6.89409 0.81937,-13.94353 1.45343,-20.87663 0.41347,-11.46153 0.11919,-22.93625 0.0448,-34.40226 -0.17837,-9.48696 -0.3265,-18.99755 -1.32,-28.44152 0,0 13.89605,-2.34313 13.89605,-2.34313 z"
       inkscape:connector-curvature="0" />
    <path
       style="opacity:1;fill:#3966ff;fill-opacity:1;fill-rule:nonzero;stroke:none;stroke-width:5.38100004;stroke-linecap:butt;stroke-linejoin:miter;stroke-miterlimit:4;stroke-dasharray:none;stroke-dashoffset:0;stroke-opacity:1"
       id="path4189-15-1-3-7-7"
       d="m 744.56674,532.16425 c -6.32731,1.65399 -11.4921,5.51055 -15.73937,10.34956 -2.95371,4.82062 -4.75148,9.3899 -3.07184,14.98689 3.01113,5.03803 8.13438,8.09317 13.39175,10.3462 4.84113,1.78757 9.87319,2.0105 14.94943,1.58319 7.79972,-1.44646 -4.76506,0.90229 -8.9916,1.40082 -0.80125,0.0945 1.54112,-0.48187 2.29444,-0.77075 2.25366,-0.86422 4.33047,-2.01115 6.38873,-3.25579 3.60465,-2.02402 6.06266,-5.26462 8.15793,-8.73904 1.84614,-3.43932 2.70001,-7.06639 2.19649,-10.93012 -2.10265,-5.83387 -7.74983,-7.48939 -13.24837,-8.76708 -4.4709,-0.59416 -18.35076,1.83958 2.12172,-1.0346 0,0 -13.84207,0.36873 -13.84207,0.36873 l 0,0 c 8.70654,-1.72467 16.37451,-4.47657 25.01764,-3.29601 6.29667,1.69464 11.48838,3.73416 13.80598,10.34237 0.5866,4.16593 -0.18181,8.07514 -2.08833,11.84507 -1.99716,3.65644 -4.47847,7.2486 -8.12093,9.41826 -8.06348,5.35527 -17.22124,7.11252 -26.99213,7.83891 -5.16128,0.26177 -10.28195,-0.24441 -15.10035,-2.25746 -5.46805,-2.60886 -10.80312,-6.01575 -13.72727,-11.51254 -0.2186,-0.79406 -0.53238,-1.56787 -0.65579,-2.38217 -0.74201,-4.89583 1.3689,-9.79479 3.62556,-13.98233 4.17442,-5.01264 9.22149,-9.12956 15.50568,-11.20607 0,0 14.1227,-0.34604 14.1227,-0.34604 z"
       inkscape:connector-curvature="0" />
    <flowRoot
       xml:space="preserve"
       id="flowRoot4368-8-8-4-2-9-1"
       style="font-style:normal;font-weight:normal;font-size:40px;line-height:125%;font-family:sans-serif;letter-spacing:0px;word-spacing:0px;fill:#ffffff;fill-opacity:1;stroke:none;stroke-width:1px;stroke-linecap:butt;stroke-linejoin:miter;stroke-opacity:1"
       transform="translate(929.07071,282.03064)"
       inkscape:export-xdpi="54.90102"
       inkscape:export-ydpi="54.90102"><flowRegion
         id="flowRegion4370-4-6-7-43-2-5"><rect
           id="rect4372-2-7-6-8-1-5"
           width="472.85712"
           height="32.857113"
           x="-111.42857"
           y="235.21935"
           style="fill:#ffffff;fill-opacity:1" /></flowRegion><flowPara
         style="font-style:normal;font-variant:normal;font-weight:bold;font-stretch:normal;font-size:22.5px;font-family:Aharoni;-inkscape-font-specification:'Aharoni Bold';fill:#ffffff;fill-opacity:1"
         id="flowPara4400-3-4-6-4-0">feature A</flowPara></flowRoot>    <flowRoot
       xml:space="preserve"
       id="flowRoot4368-8-8-4-0-5-6-0-1-6"
       style="font-style:normal;font-weight:normal;font-size:40px;line-height:125%;font-family:sans-serif;letter-spacing:0px;word-spacing:0px;fill:#ffffff;fill-opacity:1;stroke:none;stroke-width:1px;stroke-linecap:butt;stroke-linejoin:miter;stroke-opacity:1"
       transform="translate(723.85502,305.20083)"
       inkscape:export-xdpi="54.90102"
       inkscape:export-ydpi="54.90102"><flowRegion
         id="flowRegion4370-4-6-7-4-4-3-4-5-2"><rect
           id="rect4372-2-7-6-3-3-7-2-8-4"
           width="472.85712"
           height="32.857113"
           x="-111.42857"
           y="235.21935"
           style="fill:#ffffff;fill-opacity:1" /></flowRegion><flowPara
         style="font-style:normal;font-variant:normal;font-weight:bold;font-stretch:normal;font-size:22.5px;font-family:Aharoni;-inkscape-font-specification:'Aharoni Bold';fill:#ffffff;fill-opacity:1"
         id="flowPara4400-3-4-2-3-5-2-3-8">5f893</flowPara></flowRoot>    <path
       style="opacity:1;fill:#ffffff;fill-opacity:1;fill-rule:nonzero;stroke:none;stroke-width:5.38100004;stroke-linecap:butt;stroke-linejoin:miter;stroke-miterlimit:4;stroke-dasharray:none;stroke-dashoffset:0;stroke-opacity:1"
       id="path4303-5-5"
       d="m 774.79171,560.02259 c 8.93937,6.76738 16.52539,15.20489 24.30476,23.24097 10.38071,10.72525 21.33708,20.9064 32.55018,30.75619 4.9684,4.2424 10.07121,8.44334 13.88751,13.79562 1.26757,2.03477 1.85341,4.39121 3.08174,6.44246 0,0 -13.85314,2.92271 -13.85314,2.92271 l 0,0 c -1.07771,-2.0626 -1.73476,-4.31661 -2.95417,-6.30625 -3.74286,-5.19052 -8.63002,-9.37212 -13.39036,-13.59958 -11.03906,-10.02236 -21.92856,-20.23945 -32.35641,-30.89676 -7.88499,-7.9721 -15.52693,-16.50015 -24.90629,-22.75266 0,0 13.63618,-3.6027 13.63618,-3.6027 z"
       inkscape:connector-curvature="0" />
    <path
       style="opacity:1;fill:#ff0000;fill-opacity:1;fill-rule:nonzero;stroke:none;stroke-width:5.38100004;stroke-linecap:butt;stroke-linejoin:miter;stroke-miterlimit:4;stroke-dasharray:none;stroke-dashoffset:0;stroke-opacity:1"
       id="path4189-15-1-6-7"
       d="m 841.64026,630.0944 c -6.32731,1.65399 -11.4921,5.51055 -15.73937,10.34956 -2.95371,4.82062 -4.75148,9.3899 -3.07184,14.98689 3.01113,5.03803 8.13438,8.09317 13.39175,10.3462 4.84113,1.78757 9.87319,2.0105 14.94943,1.58319 7.79972,-1.44646 -4.76506,0.90229 -8.9916,1.40082 -0.80125,0.0945 1.54112,-0.48187 2.29444,-0.77075 2.25366,-0.86422 4.33047,-2.01115 6.38873,-3.25579 3.60465,-2.02402 6.06266,-5.26462 8.15793,-8.73904 1.84614,-3.43932 2.70001,-7.06639 2.19649,-10.93012 -2.10265,-5.83387 -7.74983,-7.48939 -13.24837,-8.76708 -4.4709,-0.59416 -18.35076,1.83958 2.12172,-1.0346 0,0 -13.84207,0.36873 -13.84207,0.36873 l 0,0 c 8.70654,-1.72467 16.37451,-4.47657 25.01764,-3.29601 6.29667,1.69464 11.48838,3.73416 13.80598,10.34237 0.5866,4.16593 -0.18181,8.07514 -2.08833,11.84507 -1.99716,3.65644 -4.47847,7.2486 -8.12093,9.41826 -8.06348,5.35527 -17.22124,7.11252 -26.99213,7.83891 -5.16128,0.26177 -10.28195,-0.24441 -15.10035,-2.25746 -5.46805,-2.60886 -10.80312,-6.01575 -13.72726,-11.51254 -0.2186,-0.79406 -0.53238,-1.56787 -0.65579,-2.38217 -0.74201,-4.89583 1.3689,-9.79479 3.62555,-13.98233 4.17442,-5.01264 9.22149,-9.12956 15.50568,-11.20607 0,0 14.1227,-0.34604 14.1227,-0.34604 z"
       inkscape:connector-curvature="0" />
    <path
       style="opacity:1;fill:#f1ff00;fill-opacity:1;fill-rule:nonzero;stroke:none;stroke-width:5.38100004;stroke-linecap:butt;stroke-linejoin:miter;stroke-miterlimit:4;stroke-dasharray:none;stroke-dashoffset:0;stroke-opacity:1"
       id="path4189-15-0-4-6"
       d="m 840.21169,751.52298 c -6.32731,1.65399 -11.4921,5.51055 -15.73937,10.34956 -2.95371,4.82062 -4.75148,9.3899 -3.07184,14.98689 3.01113,5.03803 8.13438,8.09317 13.39175,10.3462 4.84113,1.78757 9.87319,2.0105 14.94943,1.58319 7.79972,-1.44646 -4.76506,0.90229 -8.9916,1.40082 -0.80125,0.0945 1.54112,-0.48187 2.29444,-0.77075 2.25366,-0.86422 4.33047,-2.01115 6.38873,-3.25579 3.60464,-2.02402 6.06266,-5.26462 8.15793,-8.73904 1.84614,-3.43932 2.70001,-7.06639 2.19649,-10.93012 -2.10265,-5.83387 -7.74984,-7.48939 -13.24837,-8.76708 -4.4709,-0.59416 -18.35076,1.83958 2.12172,-1.0346 0,0 -13.84207,0.36873 -13.84207,0.36873 l 0,0 c 8.70654,-1.72467 16.3745,-4.47657 25.01764,-3.29601 6.29667,1.69464 11.48838,3.73416 13.80598,10.34237 0.5866,4.16593 -0.18181,8.07514 -2.08833,11.84507 -1.99716,3.65644 -4.47847,7.2486 -8.12093,9.41826 -8.06348,5.35527 -17.22124,7.11252 -26.99213,7.83891 -5.16128,0.26177 -10.28195,-0.24441 -15.10035,-2.25746 -5.46805,-2.60886 -10.80312,-6.01575 -13.72726,-11.51254 -0.2186,-0.79406 -0.53238,-1.56787 -0.65579,-2.38217 -0.74201,-4.89583 1.3689,-9.79479 3.62555,-13.98233 4.17442,-5.01264 9.22149,-9.12956 15.50568,-11.20607 0,0 14.1227,-0.34604 14.1227,-0.34604 z"
       inkscape:connector-curvature="0" />
    <path
       style="opacity:1;fill:#ffffff;fill-opacity:1;fill-rule:nonzero;stroke:none;stroke-width:5.38100004;stroke-linecap:butt;stroke-linejoin:miter;stroke-miterlimit:4;stroke-dasharray:none;stroke-dashoffset:0;stroke-opacity:1"
       id="path4193-9-5-1-5"
       d="m 844.8286,671.36634 c 0.57194,9.53362 0.73545,19.08383 0.87393,28.63142 0.0344,11.48415 0.36932,22.97458 0.0435,34.45591 -0.51722,6.96896 -0.35852,14.00309 -1.09502,20.95412 0,0 -13.89665,2.02209 -13.89665,2.02209 l 0,0 c 1.02043,-6.89409 0.81937,-13.94353 1.45343,-20.87663 0.41347,-11.46153 0.11919,-22.93625 0.0448,-34.40226 -0.17837,-9.48696 -0.3265,-18.99755 -1.32,-28.44152 0,0 13.89605,-2.34313 13.89605,-2.34313 z"
       inkscape:connector-curvature="0" />
    <flowRoot
       xml:space="preserve"
       id="flowRoot4368-8-8-4-0-5-6-1-3-1"
       style="font-style:normal;font-weight:normal;font-size:40px;line-height:125%;font-family:sans-serif;letter-spacing:0px;word-spacing:0px;fill:#ffffff;fill-opacity:1;stroke:none;stroke-width:1px;stroke-linecap:butt;stroke-linejoin:miter;stroke-opacity:1"
       transform="translate(1009.7857,391.7024)"
       inkscape:export-xdpi="54.90102"
       inkscape:export-ydpi="54.90102"><flowRegion
         id="flowRegion4370-4-6-7-4-4-3-48-3-6"><rect
           id="rect4372-2-7-6-3-3-7-8-7-7"
           width="472.85712"
           height="32.857113"
           x="-111.42857"
           y="235.21935"
           style="fill:#ffffff;fill-opacity:1" /></flowRegion><flowPara
         style="font-style:normal;font-variant:normal;font-weight:bold;font-stretch:normal;font-size:22.5px;font-family:Aharoni;-inkscape-font-specification:'Aharoni Bold';fill:#ffffff;fill-opacity:1"
         id="flowPara4400-3-4-2-3-5-3-3-1">4f56e2</flowPara></flowRoot>    <flowRoot
       xml:space="preserve"
       id="flowRoot4368-8-8-4-0-5-6-2-4-5"
       style="font-style:normal;font-weight:normal;font-size:40px;line-height:125%;font-family:sans-serif;letter-spacing:0px;word-spacing:0px;fill:#ffffff;fill-opacity:1;stroke:none;stroke-width:1px;stroke-linecap:butt;stroke-linejoin:miter;stroke-opacity:1"
       transform="translate(1012.6428,517.41669)"
       inkscape:export-xdpi="54.90102"
       inkscape:export-ydpi="54.90102"><flowRegion
         id="flowRegion4370-4-6-7-4-4-3-7-4-4"><rect
           id="rect4372-2-7-6-3-3-7-6-7-7"
           width="472.85712"
           height="32.857113"
           x="-111.42857"
           y="235.21935"
           style="fill:#ffffff;fill-opacity:1" /></flowRegion><flowPara
         style="font-style:normal;font-variant:normal;font-weight:bold;font-stretch:normal;font-size:22.5px;font-family:Aharoni;-inkscape-font-specification:'Aharoni Bold';fill:#ffffff;fill-opacity:1"
         id="flowPara4400-3-4-2-3-5-8-6-8">2ef61</flowPara></flowRoot>  </g>
</svg>
