<?xml version="1.0" encoding="UTF-8" standalone="no"?>
<!-- Created with Inkscape (http://www.inkscape.org/) -->

<svg
   xmlns:dc="http://purl.org/dc/elements/1.1/"
   xmlns:cc="http://creativecommons.org/ns#"
   xmlns:rdf="http://www.w3.org/1999/02/22-rdf-syntax-ns#"
   xmlns:svg="http://www.w3.org/2000/svg"
   xmlns="http://www.w3.org/2000/svg"
   xmlns:sodipodi="http://sodipodi.sourceforge.net/DTD/sodipodi-0.dtd"
   xmlns:inkscape="http://www.inkscape.org/namespaces/inkscape"
   width="210mm"
   height="297mm"
   viewBox="0 0 744.09448819 1052.3622047"
   id="svg2"
   version="1.1"
   inkscape:version="0.91 r13725"
   sodipodi:docname="workflow_gitflow.svg">
  <defs
     id="defs4">
    <inkscape:perspective
       sodipodi:type="inkscape:persp3d"
       inkscape:vp_x="0 : 526.1811 : 1"
       inkscape:vp_y="0 : 1000 : 0"
       inkscape:vp_z="744.09449 : 526.1811 : 1"
       inkscape:persp3d-origin="372.04724 : 350.7874 : 1"
       id="perspective4555" />
    <filter
       inkscape:label="Jigsaw Piece"
       inkscape:menu="Bevels"
       inkscape:menu-tooltip="Low, sharp bevel"
       style="color-interpolation-filters:sRGB;"
       id="filter4314">
      <feSpecularLighting
         in="SourceAlpha"
         surfaceScale="1"
         specularConstant="2"
         specularExponent="18.5"
         id="feSpecularLighting4316">
        <feDistantLight
           elevation="30"
           azimuth="225"
           id="feDistantLight4318" />
      </feSpecularLighting>
      <feComposite
         result="result0"
         operator="atop"
         in2="SourceGraphic"
         id="feComposite4320" />
      <feMorphology
         radius="2"
         result="result1"
         in="SourceAlpha"
         operator="dilate"
         id="feMorphology4322" />
      <feComposite
         in="result0"
         in2="result1"
         id="feComposite4324" />
    </filter>
  </defs>
  <sodipodi:namedview
     id="base"
     pagecolor="#ffffff"
     bordercolor="#666666"
     borderopacity="1.0"
     inkscape:pageopacity="0.0"
     inkscape:pageshadow="2"
     inkscape:zoom="0.7"
     inkscape:cx="213.61434"
     inkscape:cy="654.38304"
     inkscape:document-units="px"
     inkscape:current-layer="layer1"
     showgrid="false"
     inkscape:window-width="1920"
     inkscape:window-height="1138"
     inkscape:window-x="-8"
     inkscape:window-y="-8"
     inkscape:window-maximized="1" />
  <metadata
     id="metadata7">
    <rdf:RDF>
      <cc:Work
         rdf:about="">
        <dc:format>image/svg+xml</dc:format>
        <dc:type
           rdf:resource="http://purl.org/dc/dcmitype/StillImage" />
        <dc:title />
      </cc:Work>
    </rdf:RDF>
  </metadata>
  <g
     inkscape:label="Calque 1"
     inkscape:groupmode="layer"
     id="layer1">
    <rect
       style="opacity:1;fill:#000000;fill-opacity:1;stroke:none;stroke-width:17.90200043;stroke-linejoin:round;stroke-miterlimit:4;stroke-dasharray:none;stroke-opacity:1"
       id="rect4571"
       width="1647.1428"
       height="1228.5714"
       x="-622.85718"
       y="-46.209225" />
    <flowRoot
       xml:space="preserve"
       id="flowRoot4368-8-8-4-8-4"
       style="font-style:normal;font-weight:normal;font-size:40px;line-height:125%;font-family:sans-serif;letter-spacing:0px;word-spacing:0px;fill:#ffffff;fill-opacity:1;stroke:none;stroke-width:1px;stroke-linecap:butt;stroke-linejoin:miter;stroke-opacity:1"
       transform="translate(-168.57537,-203.61923)"
       inkscape:export-xdpi="54.90102"
       inkscape:export-ydpi="54.90102"><flowRegion
         id="flowRegion4370-4-6-7-7-8"><rect
           id="rect4372-2-7-6-81-2"
           width="472.85712"
           height="32.857113"
           x="-111.42857"
           y="235.21935"
           style="fill:#ffffff;fill-opacity:1" /></flowRegion><flowPara
         style="font-style:normal;font-variant:normal;font-weight:bold;font-stretch:normal;font-size:22.5px;font-family:Aharoni;-inkscape-font-specification:'Aharoni Bold';fill:#ffffff;fill-opacity:1"
         id="flowPara4400-3-4-5-8">master</flowPara></flowRoot>    <path
       style="opacity:1;fill:#ffffff;fill-opacity:1;fill-rule:nonzero;stroke:none;stroke-width:5.38100004;stroke-linecap:butt;stroke-linejoin:miter;stroke-miterlimit:4;stroke-dasharray:none;stroke-dashoffset:0;stroke-opacity:1"
       id="path4189-19-5"
       d="m -234.70907,101.39962 c -6.32731,1.65399 -11.4921,5.51055 -15.73937,10.34956 -2.95371,4.82062 -4.75148,9.3899 -3.07184,14.98689 3.01113,5.03803 8.13438,8.09317 13.39175,10.3462 4.84113,1.78757 9.87319,2.0105 14.94943,1.58319 7.79973,-1.44646 -4.76506,0.90229 -8.9916,1.40082 -0.80125,0.0945 1.54112,-0.48187 2.29444,-0.77075 2.25366,-0.86422 4.33047,-2.01115 6.38873,-3.25579 3.60465,-2.02402 6.06267,-5.26462 8.15794,-8.73904 1.84614,-3.43932 2.70001,-7.06639 2.19649,-10.93012 -2.10265,-5.83387 -7.74984,-7.48939 -13.24838,-8.76708 -4.4709,-0.59416 -18.35076,1.83958 2.12172,-1.0346 0,0 -13.84207,0.36873 -13.84207,0.36873 l 0,0 c 8.70654,-1.72467 16.37451,-4.47657 25.01765,-3.29601 6.29667,1.69464 11.48838,3.73416 13.80598,10.34237 0.5866,4.16593 -0.18181,8.07514 -2.08833,11.84507 -1.99716,3.65644 -4.47847,7.2486 -8.12093,9.41826 -8.06348,5.35527 -17.22125,7.11252 -26.99214,7.83891 -5.16128,0.26177 -10.28195,-0.24441 -15.10035,-2.25746 -5.46805,-2.60886 -10.80312,-6.01575 -13.72726,-11.51254 -0.2186,-0.79406 -0.53238,-1.56787 -0.65579,-2.38217 -0.74201,-4.89583 1.3689,-9.79479 3.62555,-13.98233 4.17442,-5.01264 9.22149,-9.12956 15.50568,-11.20607 0,0 14.1227,-0.34604 14.1227,-0.34604 z"
       inkscape:connector-curvature="0" />
    <path
       style="opacity:1;fill:#ffffff;fill-opacity:1;fill-rule:nonzero;stroke:none;stroke-width:5.38100004;stroke-linecap:butt;stroke-linejoin:miter;stroke-miterlimit:4;stroke-dasharray:none;stroke-dashoffset:0;stroke-opacity:1"
       id="path4189-15-2-4"
       d="m -239.08396,307.4986 c -6.32731,1.65399 -11.4921,5.51055 -15.73937,10.34956 -2.95371,4.82062 -4.75148,9.3899 -3.07184,14.98689 3.01113,5.03803 8.13438,8.09317 13.39175,10.3462 4.84113,1.78757 9.87319,2.0105 14.94943,1.58319 7.79973,-1.44646 -4.76506,0.90229 -8.9916,1.40082 -0.80125,0.0945 1.54112,-0.48187 2.29444,-0.77075 2.25366,-0.86422 4.33047,-2.01115 6.38873,-3.25579 3.60465,-2.02402 6.06267,-5.26462 8.15794,-8.73904 1.84614,-3.43932 2.70001,-7.06639 2.19649,-10.93012 -2.10265,-5.83387 -7.74984,-7.48939 -13.24838,-8.76708 -4.4709,-0.59416 -18.35076,1.83958 2.12172,-1.0346 0,0 -13.84207,0.36873 -13.84207,0.36873 l 0,0 c 8.70654,-1.72467 16.37451,-4.47657 25.01765,-3.29601 6.29667,1.69464 11.48838,3.73416 13.80598,10.34237 0.5866,4.16593 -0.18181,8.07514 -2.08833,11.84507 -1.99716,3.65644 -4.47847,7.2486 -8.12093,9.41826 -8.06348,5.35527 -17.22125,7.11252 -26.99214,7.83891 -5.16128,0.26177 -10.28195,-0.24441 -15.10035,-2.25746 -5.46805,-2.60886 -10.80312,-6.01575 -13.72726,-11.51254 -0.2186,-0.79406 -0.53238,-1.56787 -0.65579,-2.38217 -0.74201,-4.89583 1.3689,-9.79479 3.62555,-13.98233 4.17442,-5.01264 9.22149,-9.12956 15.50568,-11.20607 0,0 14.1227,-0.34604 14.1227,-0.34604 z"
       inkscape:connector-curvature="0" />
    <flowRoot
       xml:space="preserve"
       id="flowRoot4297"
       style="font-style:normal;font-weight:normal;font-size:40px;line-height:125%;font-family:sans-serif;letter-spacing:0px;word-spacing:0px;fill:#ffffff;fill-opacity:1;stroke:none;stroke-width:1px;stroke-linecap:butt;stroke-linejoin:miter;stroke-opacity:1;"><flowRegion
         id="flowRegion4299"><rect
           id="rect4301"
           width="92.85714"
           height="41.42857"
           x="-377.14285"
           y="102.36221"
           style="fill:#ffffff;fill-opacity:1;" /></flowRegion><flowPara
         id="flowPara4303">v1.0</flowPara></flowRoot>    <flowRoot
       xml:space="preserve"
       id="flowRoot4368-8-8-4-8-4-0"
       style="font-style:normal;font-weight:normal;font-size:40px;line-height:125%;font-family:sans-serif;letter-spacing:0px;word-spacing:0px;fill:#ffffff;fill-opacity:1;stroke:none;stroke-width:1px;stroke-linecap:butt;stroke-linejoin:miter;stroke-opacity:1"
       transform="translate(-248.84891,-135.669)"
       inkscape:export-xdpi="54.90102"
       inkscape:export-ydpi="54.90102"><flowRegion
         id="flowRegion4370-4-6-7-7-8-7"><rect
           id="rect4372-2-7-6-81-2-1"
           width="128.57138"
           height="87.142815"
           x="-111.42857"
           y="235.21935"
           style="fill:#ffffff;fill-opacity:1" /></flowRegion><flowPara
         style="font-style:normal;font-variant:normal;font-weight:bold;font-stretch:normal;font-size:30px;font-family:Aharoni;-inkscape-font-specification:'Aharoni Bold';fill:#ffffff;fill-opacity:1"
         id="flowPara4400-3-4-5-8-9">v1.0.0</flowPara></flowRoot>    <flowRoot
       xml:space="preserve"
       id="flowRoot4368-8-8-4-8-4-00"
       style="font-style:normal;font-weight:normal;font-size:40px;line-height:125%;font-family:sans-serif;letter-spacing:0px;word-spacing:0px;fill:#ff6c6c;fill-opacity:1;stroke:none;stroke-width:1px;stroke-linecap:butt;stroke-linejoin:miter;stroke-opacity:1"
       transform="translate(-48.563199,-202.81186)"
       inkscape:export-xdpi="54.90102"
       inkscape:export-ydpi="54.90102"><flowRegion
         id="flowRegion4370-4-6-7-7-8-8"><rect
           id="rect4372-2-7-6-81-2-5"
           width="472.85712"
           height="32.857113"
           x="-111.42857"
           y="235.21935"
           style="fill:#ff6c6c;fill-opacity:1" /></flowRegion><flowPara
         style="font-style:normal;font-variant:normal;font-weight:bold;font-stretch:normal;font-size:22.5px;font-family:Aharoni;-inkscape-font-specification:'Aharoni Bold';fill:#ff6c6c;fill-opacity:1"
         id="flowPara4400-3-4-5-8-7">hotfix/title</flowPara></flowRoot>    <path
       style="opacity:1;fill:#ffffff;fill-opacity:1;stroke:none;stroke-width:17.90200043;stroke-linejoin:round;stroke-miterlimit:4;stroke-dasharray:none;stroke-opacity:1"
       id="path4361"
       d="m -193.53869,123.39454 c 10.45984,10.42179 21.11509,20.67057 31.7581,30.91439 12.99892,12.19762 26.53489,23.79989 39.72521,35.78911 4.47019,4.05429 2.41406,2.12651 6.19196,5.75809 0,0 -13.46568,3.24081 -13.46568,3.24081 l 0,0 c -3.57489,-3.63977 -1.61355,-1.70247 -5.91493,-5.78041 -12.85855,-12.18355 -26.11276,-23.92188 -39.10549,-35.95996 -10.89827,-10.34285 -21.89632,-20.57428 -32.91835,-30.77722 0,0 13.72918,-3.18481 13.72918,-3.18481 z"
       inkscape:connector-curvature="0" />
    <path
       style="opacity:1;fill:#ff6c6c;fill-opacity:1;fill-rule:nonzero;stroke:none;stroke-width:5.38100004;stroke-linecap:butt;stroke-linejoin:miter;stroke-miterlimit:4;stroke-dasharray:none;stroke-dashoffset:0;stroke-opacity:1"
       id="path4189-1-1-6-0"
       d="m -118.6806,198.91565 c -6.32731,1.65399 -11.4921,5.51055 -15.73937,10.34956 -2.95371,4.82062 -4.75148,9.3899 -3.07184,14.98689 3.01113,5.03803 8.13438,8.09317 13.39175,10.3462 4.84113,1.78757 9.87319,2.0105 14.94944,1.58319 7.79972,-1.44646 -4.76507,0.90229 -8.99161,1.40082 -0.80125,0.0945 1.54112,-0.48187 2.29444,-0.77075 2.25366,-0.86422 4.33047,-2.01115 6.38874,-3.25579 3.60464,-2.02402 6.06266,-5.26462 8.15793,-8.73904 1.846145,-3.43932 2.700015,-7.06639 2.196495,-10.93012 -2.102655,-5.83387 -7.749845,-7.48939 -13.248385,-8.76708 -4.4709,-0.59416 -18.35076,1.83958 2.12172,-1.0346 0,0 -13.84207,0.36873 -13.84207,0.36873 l 0,0 c 8.70654,-1.72467 16.37451,-4.47657 25.017655,-3.29601 6.29667,1.69464 11.48838,3.73416 13.80598,10.34237 0.5866,4.16593 -0.18181,8.07514 -2.08833,11.84507 -1.99716,3.65644 -4.47847,7.2486 -8.12093,9.41826 -8.063485,5.35527 -17.221255,7.11252 -26.992145,7.83891 -5.16128,0.26177 -10.28195,-0.24441 -15.10035,-2.25746 -5.46805,-2.60886 -10.80312,-6.01575 -13.72726,-11.51254 -0.2186,-0.79406 -0.53238,-1.56787 -0.65579,-2.38217 -0.74201,-4.89583 1.3689,-9.79479 3.62555,-13.98233 4.17442,-5.01264 9.22149,-9.12956 15.50568,-11.20607 0,0 14.1227,-0.34604 14.1227,-0.34604 z"
       inkscape:connector-curvature="0" />
    <path
       style="opacity:1;fill:#ffffff;fill-opacity:1;stroke:none;stroke-width:17.90200043;stroke-linejoin:round;stroke-miterlimit:4;stroke-dasharray:none;stroke-opacity:1"
       id="path4382"
       d="m -228.73135,143.88096 c -0.0904,3.9909 -0.0552,7.9835 -0.0398,11.97507 0.0139,3.14773 0.0205,6.29547 0.0239,9.44322 0.002,2.8578 0.002,5.71559 0.002,8.57339 -1e-4,2.85264 -1.9e-4,5.70528 -2.4e-4,8.55793 -4e-5,2.85685 -5e-5,5.71369 -5e-5,8.57054 -0.0159,2.70107 -0.13848,5.3706 0.39665,8.02669 0.5954,2.54275 0.80694,5.14377 0.93789,7.74457 0.1226,3.0496 0.089,6.10222 0.0897,9.15346 0.007,3.37818 -0.003,6.75632 -0.021,10.13444 -0.0201,4.09266 -0.0179,8.18549 -0.006,12.27819 0.0132,3.26167 0.0228,6.52334 0.0278,9.78503 0.004,2.87002 0.004,5.74004 0.004,8.61006 -0.0381,3.58751 -0.0286,7.17516 -0.0188,10.76278 0.22256,3.35485 -0.42488,6.64854 -0.84547,9.95933 -0.3806,3.06475 -0.48693,6.15222 -0.54606,9.23687 0.0706,2.59666 -0.66562,5.11158 -1.03702,7.66349 -0.28014,2.74477 -0.32429,5.47847 -0.79697,8.2008 -0.23026,1.86172 -0.84928,3.63249 -1.60531,5.33767 0,0 -14.22541,0.70341 -14.22541,0.70341 l 0,0 c 0.12247,0.0788 0.23271,0.29169 0.36741,0.23636 1.11224,-0.45693 1.15502,-3.42872 1.48925,-4.31631 0.49534,-2.70311 0.56196,-5.40722 0.7843,-8.14326 0.32972,-2.51059 1.08033,-4.9658 1.08673,-7.50218 0.0604,-3.13546 0.16975,-6.27355 0.55217,-9.38921 0.40743,-3.25446 1.05948,-6.49003 0.87555,-9.78529 0.01,-3.58564 0.0193,-7.1713 -0.0188,-10.75682 1e-4,-2.8704 9e-5,-5.74081 0.004,-8.61121 0.005,-3.26464 0.0144,-6.52926 0.0278,-9.79388 0.0124,-4.09256 0.0151,-8.18523 -0.002,-12.27776 -0.0146,-3.37633 -0.0164,-6.75265 -0.005,-10.129 -0.002,-3.02623 -0.0101,-6.0535 -0.11537,-9.0782 -0.12687,-2.53286 -0.33726,-5.06403 -0.9209,-7.53953 -0.53449,-2.75049 -0.44789,-5.50882 -0.41688,-8.30295 0,-2.85685 -1e-5,-5.71369 -5e-5,-8.57053 -5e-5,-2.85262 -1.5e-4,-5.70524 -2.4e-4,-8.55786 -2e-5,-2.85802 -2.2e-4,-5.71604 0.002,-8.57406 0.003,-3.15027 0.01,-6.30055 0.0239,-9.4508 0.0154,-3.98737 0.0508,-7.97578 -0.0398,-11.96247 0,0 13.96587,-2.21198 13.96587,-2.21198 z"
       inkscape:connector-curvature="0" />
    <path
       style="opacity:1;fill:#ffffff;fill-opacity:1;stroke:none;stroke-width:17.90200043;stroke-linejoin:round;stroke-miterlimit:4;stroke-dasharray:none;stroke-opacity:1"
       id="path4384"
       d="m -123.96973,236.9161 c -3.34195,2.40841 -6.6149,4.90514 -9.76253,7.5626 -2.56041,2.19306 -4.8467,4.68607 -7.11639,7.17328 -1.54643,1.74476 -3.26264,3.31726 -4.90464,4.96824 -2.03569,1.90877 -3.82021,4.02347 -5.98621,5.79513 -1.96249,1.43836 -3.49469,3.29482 -4.82594,5.30596 -1.08997,1.79524 -2.41689,3.42052 -3.8089,4.98606 -1.37147,1.52333 -2.87374,2.92093 -4.24464,4.44366 -2.57156,2.9166 -5.28187,5.70807 -8.00605,8.48142 -3.65396,3.69701 -7.32479,7.37741 -10.9919,11.0614 -2.69812,2.46316 -5.25889,5.06648 -7.90208,7.5869 -2.00669,1.72116 -3.9157,3.54188 -5.79264,5.40291 -0.25479,0.25837 -0.50957,0.51674 -0.76435,0.77511 0,0 -14.10003,1.16865 -14.10003,1.16865 l 0,0 c 0.25398,-0.29451 0.50796,-0.58903 0.76194,-0.88355 1.99149,-1.7407 3.67112,-3.82142 5.83948,-5.37329 2.59479,-2.59587 5.28967,-5.1143 8.01198,-7.57886 3.67896,-3.66551 7.35773,-7.33134 10.98823,-11.045 2.66949,-2.74811 5.36027,-5.48199 7.85931,-8.38826 1.3415,-1.59306 2.84121,-2.98742 4.22201,-4.5336 1.51169,-1.35359 2.76069,-3.03931 3.84127,-4.74612 1.49556,-2.02196 2.74977,-4.22147 4.83461,-5.7503 2.29088,-1.59384 4.01653,-3.67238 5.96299,-5.63437 1.71603,-1.53802 3.25852,-3.25714 4.93023,-4.84123 2.21279,-2.62316 4.71672,-5.02175 7.20138,-7.3834 3.12107,-2.69758 6.41451,-5.16171 9.64175,-7.72265 0,0 14.11112,-0.83069 14.11112,-0.83069 z"
       inkscape:connector-curvature="0" />
    <flowRoot
       xml:space="preserve"
       id="flowRoot4368-8-8-4-8-4-0-1"
       style="font-style:normal;font-weight:normal;font-size:40px;line-height:125%;font-family:sans-serif;letter-spacing:0px;word-spacing:0px;fill:#ffffff;fill-opacity:1;stroke:none;stroke-width:1px;stroke-linecap:butt;stroke-linejoin:miter;stroke-opacity:1"
       transform="translate(-251.24777,72.192457)"
       inkscape:export-xdpi="54.90102"
       inkscape:export-ydpi="54.90102"><flowRegion
         id="flowRegion4370-4-6-7-7-8-7-1"><rect
           id="rect4372-2-7-6-81-2-1-6"
           width="128.57138"
           height="87.142815"
           x="-111.42857"
           y="235.21935"
           style="fill:#ffffff;fill-opacity:1" /></flowRegion><flowPara
         style="font-style:normal;font-variant:normal;font-weight:bold;font-stretch:normal;font-size:30px;font-family:Aharoni;-inkscape-font-specification:'Aharoni Bold';fill:#ffffff;fill-opacity:1"
         id="flowPara4400-3-4-5-8-9-9">v1.0.1</flowPara></flowRoot>    <path
       style="opacity:1;fill:#459dff;fill-opacity:1;fill-rule:nonzero;stroke:none;stroke-width:5.38100004;stroke-linecap:butt;stroke-linejoin:miter;stroke-miterlimit:4;stroke-dasharray:none;stroke-dashoffset:0;stroke-opacity:1"
       id="path4189-19-5-1"
       d="m 210.17654,165.77279 c -6.32731,1.65399 -11.4921,5.51055 -15.73937,10.34956 -2.95371,4.82062 -4.75148,9.3899 -3.07184,14.98689 3.01113,5.03803 8.13438,8.09317 13.39175,10.3462 4.84113,1.78757 9.87319,2.0105 14.94943,1.58319 7.79973,-1.44646 -4.76506,0.90229 -8.9916,1.40082 -0.80125,0.0945 1.54112,-0.48187 2.29444,-0.77075 2.25366,-0.86422 4.33047,-2.01115 6.38873,-3.25579 3.60465,-2.02402 6.06267,-5.26462 8.15794,-8.73904 1.84614,-3.43932 2.70001,-7.06639 2.19649,-10.93012 -2.10265,-5.83387 -7.74984,-7.48939 -13.24838,-8.76708 -4.4709,-0.59416 -18.35076,1.83958 2.12172,-1.0346 0,0 -13.84207,0.36873 -13.84207,0.36873 l 0,0 c 8.70654,-1.72467 16.37451,-4.47657 25.01765,-3.29601 6.29667,1.69464 11.48838,3.73416 13.80598,10.34237 0.5866,4.16593 -0.18181,8.07514 -2.08833,11.84507 -1.99716,3.65644 -4.47847,7.2486 -8.12093,9.41826 -8.06348,5.35527 -17.22125,7.11252 -26.99214,7.83891 -5.16128,0.26177 -10.28195,-0.24441 -15.10035,-2.25746 -5.46805,-2.60886 -10.80312,-6.01575 -13.72726,-11.51254 -0.2186,-0.79406 -0.53238,-1.56787 -0.65579,-2.38217 -0.74201,-4.89583 1.3689,-9.79479 3.62555,-13.98233 4.17442,-5.01264 9.22149,-9.12956 15.50568,-11.20607 0,0 14.1227,-0.34604 14.1227,-0.34604 z"
       inkscape:connector-curvature="0" />
    <flowRoot
       xml:space="preserve"
       id="flowRoot4368-8-8-4-8-4-00-2"
       style="font-style:normal;font-weight:normal;font-size:40px;line-height:125%;font-family:sans-serif;letter-spacing:0px;word-spacing:0px;fill:#00be0e;fill-opacity:1;stroke:none;stroke-width:1px;stroke-linecap:butt;stroke-linejoin:miter;stroke-opacity:1"
       transform="translate(105.21582,-203.44962)"
       inkscape:export-xdpi="54.90102"
       inkscape:export-ydpi="54.90102"><flowRegion
         id="flowRegion4370-4-6-7-7-8-8-2"><rect
           id="rect4372-2-7-6-81-2-5-4"
           width="472.85712"
           height="32.857113"
           x="-111.42857"
           y="235.21935"
           style="fill:#00be0e;fill-opacity:1" /></flowRegion><flowPara
         style="font-style:normal;font-variant:normal;font-weight:bold;font-stretch:normal;font-size:22.5px;font-family:Aharoni;-inkscape-font-specification:'Aharoni Bold';fill:#00be0e;fill-opacity:1"
         id="flowPara4400-3-4-5-8-7-0">release/1.1.0</flowPara></flowRoot>    <flowRoot
       xml:space="preserve"
       id="flowRoot4368-8-8-4-8-4-00-5"
       style="font-style:normal;font-weight:normal;font-size:40px;line-height:125%;font-family:sans-serif;letter-spacing:0px;word-spacing:0px;fill:#459dff;fill-opacity:1;stroke:none;stroke-width:1px;stroke-linecap:butt;stroke-linejoin:miter;stroke-opacity:1;"
       transform="translate(282.07297,-204.02105)"
       inkscape:export-xdpi="54.90102"
       inkscape:export-ydpi="54.90102"><flowRegion
         id="flowRegion4370-4-6-7-7-8-8-6"><rect
           id="rect4372-2-7-6-81-2-5-2"
           width="472.85712"
           height="32.857113"
           x="-111.42857"
           y="235.21935"
           style="fill:#459dff;fill-opacity:1;" /></flowRegion><flowPara
         style="font-style:normal;font-variant:normal;font-weight:bold;font-stretch:normal;font-size:22.5px;font-family:Aharoni;-inkscape-font-specification:'Aharoni Bold';fill:#459dff;fill-opacity:1;"
         id="flowPara4400-3-4-5-8-7-7">develop</flowPara></flowRoot>    <flowRoot
       xml:space="preserve"
       id="flowRoot4368-8-8-4-8-4-00-5-1"
       style="font-style:normal;font-weight:normal;font-size:40px;line-height:125%;font-family:sans-serif;letter-spacing:0px;word-spacing:0px;fill:#ffe56c;fill-opacity:1;stroke:none;stroke-width:1px;stroke-linecap:butt;stroke-linejoin:miter;stroke-opacity:1;"
       transform="translate(458.39436,-203.82267)"
       inkscape:export-xdpi="54.90102"
       inkscape:export-ydpi="54.90102"><flowRegion
         id="flowRegion4370-4-6-7-7-8-8-6-9"><rect
           id="rect4372-2-7-6-81-2-5-2-3"
           width="472.85712"
           height="32.857113"
           x="-111.42857"
           y="235.21935"
           style="fill:#ffe56c;fill-opacity:1;" /></flowRegion><flowPara
         style="font-style:normal;font-variant:normal;font-weight:bold;font-stretch:normal;font-size:22.5px;font-family:Aharoni;-inkscape-font-specification:'Aharoni Bold';fill:#ffe56c;fill-opacity:1;"
         id="flowPara4400-3-4-5-8-7-7-4">feature/login</flowPara></flowRoot>    <flowRoot
       xml:space="preserve"
       id="flowRoot4368-8-8-4-8-4-00-5-1-1"
       style="font-style:normal;font-weight:normal;font-size:40px;line-height:125%;font-family:sans-serif;letter-spacing:0px;word-spacing:0px;fill:#ff8c6c;fill-opacity:1;stroke:none;stroke-width:1px;stroke-linecap:butt;stroke-linejoin:miter;stroke-opacity:1;"
       transform="translate(689.96647,-202.68531)"
       inkscape:export-xdpi="54.90102"
       inkscape:export-ydpi="54.90102"><flowRegion
         id="flowRegion4370-4-6-7-7-8-8-6-9-7"><rect
           id="rect4372-2-7-6-81-2-5-2-3-4"
           width="472.85712"
           height="32.857113"
           x="-111.42857"
           y="235.21935"
           style="fill:#ff8c6c;fill-opacity:1;" /></flowRegion><flowPara
         style="font-style:normal;font-variant:normal;font-weight:bold;font-stretch:normal;font-size:22.5px;font-family:Aharoni;-inkscape-font-specification:'Aharoni Bold';fill:#ff8c6c;fill-opacity:1;"
         id="flowPara4400-3-4-5-8-7-7-4-8">feature/logout</flowPara></flowRoot>    <path
       style="opacity:1;fill:#459dff;fill-opacity:1;fill-rule:nonzero;stroke:none;stroke-width:5.38100004;stroke-linecap:butt;stroke-linejoin:miter;stroke-miterlimit:4;stroke-dasharray:none;stroke-dashoffset:0;stroke-opacity:1"
       id="path4193-9-3-8-1"
       d="m 213.65061,206.47329 c 0.57194,9.53362 0.73545,19.08383 0.87393,28.63142 0.0344,11.48415 0.36932,22.97458 0.0435,34.45591 -0.51722,6.96896 -0.35852,14.00309 -1.09502,20.95412 0,0 -13.89665,2.02209 -13.89665,2.02209 l 0,0 c 1.02043,-6.89409 0.81937,-13.94353 1.45343,-20.87663 0.41347,-11.46153 0.11919,-22.93625 0.0448,-34.40226 -0.17837,-9.48696 -0.3265,-18.99755 -1.32,-28.44152 0,0 13.89605,-2.34313 13.89605,-2.34313 z"
       inkscape:connector-curvature="0" />
    <path
       style="opacity:1;fill:#459dff;fill-opacity:1;fill-rule:nonzero;stroke:none;stroke-width:5.38100004;stroke-linecap:butt;stroke-linejoin:miter;stroke-miterlimit:4;stroke-dasharray:none;stroke-dashoffset:0;stroke-opacity:1"
       id="path4189-19-5-1-0"
       d="m 204.17655,292.91564 c -6.32731,1.65399 -11.4921,5.51055 -15.73937,10.34956 -2.95371,4.82062 -4.75148,9.3899 -3.07184,14.98689 3.01113,5.03803 8.13438,8.09317 13.39175,10.3462 4.84113,1.78757 9.87319,2.0105 14.94943,1.58319 7.79973,-1.44646 -4.76506,0.90229 -8.9916,1.40082 -0.80125,0.0945 1.54112,-0.48187 2.29444,-0.77075 2.25366,-0.86422 4.33047,-2.01115 6.38873,-3.25579 3.60465,-2.02402 6.06267,-5.26462 8.15794,-8.73904 1.84614,-3.43932 2.70001,-7.06639 2.19649,-10.93012 -2.10265,-5.83387 -7.74984,-7.48939 -13.24838,-8.76708 -4.4709,-0.59416 -18.35076,1.83958 2.12172,-1.0346 0,0 -13.84207,0.36873 -13.84207,0.36873 l 0,0 c 8.70654,-1.72467 16.37451,-4.47657 25.01765,-3.29601 6.29667,1.69464 11.48838,3.73416 13.80598,10.34237 0.5866,4.16593 -0.18181,8.07514 -2.08833,11.84507 -1.99716,3.65644 -4.47847,7.2486 -8.12093,9.41826 -8.06348,5.35527 -17.22125,7.11252 -26.99214,7.83891 -5.16128,0.26177 -10.28195,-0.24441 -15.10035,-2.25746 -5.46805,-2.60886 -10.80312,-6.01575 -13.72726,-11.51254 -0.2186,-0.79406 -0.53238,-1.56787 -0.65579,-2.38217 -0.74201,-4.89583 1.3689,-9.79479 3.62555,-13.98233 4.17442,-5.01264 9.22149,-9.12956 15.50568,-11.20607 0,0 14.1227,-0.34604 14.1227,-0.34604 z"
       inkscape:connector-curvature="0" />
    <path
       style="opacity:1;fill:#ffffff;fill-opacity:1;stroke:none;stroke-width:17.90200043;stroke-linejoin:round;stroke-miterlimit:4;stroke-dasharray:none;stroke-opacity:1"
       id="path4577"
       d="m -82.003131,226.68009 c 5.001529,1.68173 9.913173,3.60741 14.887615,5.36379 6.009391,2.13966 12.118596,3.96373 18.167932,5.99037 6.35682,1.80207 12.672794,3.74699 19.127675,5.17388 5.96301,1.41767 11.96087,2.71177 17.98409,3.85279 6.4806092,1.12218 12.74379292,3.08154 19.0431164,4.91711 7.0381026,2.39421 14.1646936,4.4794 21.3247516,6.47183 9.914648,2.66625 19.892801,5.10281 29.87688,7.4966 10.17867,1.96999 20.19904,4.59964 30.245391,7.13268 7.832359,1.93884 15.48644,4.4917 23.3316,6.38511 6.31232,1.34101 12.75568,1.83359 19.09073,3.04492 4.58677,0.61123 8.92638,2.06554 13.22501,3.71497 3.63367,1.15013 7.31262,2.18986 11.00439,3.15428 2.68421,0.54384 5.36499,0.65898 8.01548,1.34865 2.38981,0.2785 4.62037,1.03131 6.93523,1.62706 2.36394,0.2612 4.53191,1.20344 6.86,1.65189 1.63313,0.22256 0.80657,0.12744 2.47993,0.28328 0,0 -13.48691,4.21008 -13.48691,4.21008 l 0,0 c -1.70902,-0.23781 -0.86493,-0.098 -2.53261,-0.4175 -2.29726,-0.57167 -4.54767,-1.30576 -6.88438,-1.71669 -2.28409,-0.65827 -4.5925,-1.10395 -6.91868,-1.58769 -2.64392,-0.58478 -5.38319,-0.60212 -7.9869,-1.40488 -3.66685,-1.06225 -7.3795,-1.98488 -10.96637,-3.29518 -4.25954,-1.54759 -8.56607,-2.86074 -13.06909,-3.50412 -6.32897,-1.108 -12.74686,-1.69306 -19.011627,-3.15748 -7.798397,-1.97372 -15.440853,-4.48688 -23.248869,-6.42147 -9.980504,-2.59197 -19.977564,-5.09692 -30.08442,-7.15771 -10.059427,-2.39217 -20.11533,-4.81816 -30.106057,-7.48197 -7.1850791,-2.00613 -14.32909713,-4.13862 -21.4177064,-6.46443 -6.2655146,-1.85493 -12.5469496,-3.64981 -18.9903696,-4.79454 -6.042641,-1.18167 -12.076007,-2.43072 -18.05983,-3.88247 -6.42786,-1.5404 -12.753239,-3.45919 -19.093842,-5.32007 -6.086563,-2.00006 -12.224135,-3.83951 -18.256717,-5.9991 -5.020095,-1.82565 -10.032305,-3.66671 -15.086837,-5.3959 0,0 13.601394,-3.81809 13.601394,-3.81809 z"
       inkscape:connector-curvature="0" />
    <path
       style="opacity:1;fill:#ffe56c;fill-opacity:1;fill-rule:nonzero;stroke:none;stroke-width:5.38100004;stroke-linecap:butt;stroke-linejoin:miter;stroke-miterlimit:4;stroke-dasharray:none;stroke-dashoffset:0;stroke-opacity:1"
       id="path4189-19-5-1-4"
       d="m 407.03369,235.77279 c -6.32731,1.65399 -11.4921,5.51055 -15.73937,10.34956 -2.95371,4.82062 -4.75148,9.3899 -3.07184,14.98689 3.01113,5.03803 8.13438,8.09317 13.39175,10.3462 4.84113,1.78757 9.87319,2.0105 14.94943,1.58319 7.79973,-1.44646 -4.76506,0.90229 -8.9916,1.40082 -0.80125,0.0945 1.54112,-0.48187 2.29444,-0.77075 2.25366,-0.86422 4.33047,-2.01115 6.38873,-3.25579 3.60465,-2.02402 6.06267,-5.26462 8.15794,-8.73904 1.84614,-3.43932 2.70001,-7.06639 2.19649,-10.93012 -2.10265,-5.83387 -7.74984,-7.48939 -13.24838,-8.76708 -4.4709,-0.59416 -18.35076,1.83958 2.12172,-1.0346 0,0 -13.84207,0.36873 -13.84207,0.36873 l 0,0 c 8.70654,-1.72467 16.37451,-4.47657 25.01765,-3.29601 6.29667,1.69464 11.48838,3.73416 13.80598,10.34237 0.5866,4.16593 -0.18181,8.07514 -2.08833,11.84507 -1.99716,3.65644 -4.47847,7.2486 -8.12093,9.41826 -8.06348,5.35527 -17.22125,7.11252 -26.99214,7.83891 -5.16128,0.26177 -10.28195,-0.24441 -15.10035,-2.25746 -5.46805,-2.60886 -10.80312,-6.01575 -13.72726,-11.51254 -0.2186,-0.79406 -0.53238,-1.56787 -0.65579,-2.38217 -0.74201,-4.89583 1.3689,-9.79479 3.62555,-13.98233 4.17442,-5.01264 9.22149,-9.12956 15.50568,-11.20607 0,0 14.1227,-0.34604 14.1227,-0.34604 z"
       inkscape:connector-curvature="0" />
    <path
       style="opacity:1;fill:#ff8c6c;fill-opacity:1;fill-rule:nonzero;stroke:none;stroke-width:5.38100004;stroke-linecap:butt;stroke-linejoin:miter;stroke-miterlimit:4;stroke-dasharray:none;stroke-dashoffset:0;stroke-opacity:1"
       id="path4189-19-5-1-2"
       d="m 659.89083,238.62993 c -6.32731,1.65399 -11.4921,5.51055 -15.73937,10.34956 -2.95371,4.82062 -4.75148,9.3899 -3.07184,14.98689 3.01113,5.03803 8.13438,8.09317 13.39175,10.3462 4.84113,1.78757 9.87319,2.0105 14.94943,1.58319 7.79973,-1.44646 -4.76506,0.90229 -8.9916,1.40082 -0.80125,0.0945 1.54112,-0.48187 2.29444,-0.77075 2.25366,-0.86422 4.33047,-2.01115 6.38873,-3.25579 3.60465,-2.02402 6.06267,-5.26462 8.15794,-8.73904 1.84614,-3.43932 2.70001,-7.06639 2.19649,-10.93012 -2.10265,-5.83387 -7.74984,-7.48939 -13.24838,-8.76708 -4.4709,-0.59416 -18.35076,1.83958 2.12172,-1.0346 0,0 -13.84207,0.36873 -13.84207,0.36873 l 0,0 c 8.70654,-1.72467 16.37451,-4.47657 25.01765,-3.29601 6.29667,1.69464 11.48838,3.73416 13.80598,10.34237 0.5866,4.16593 -0.18181,8.07514 -2.08833,11.84507 -1.99716,3.65644 -4.47847,7.2486 -8.12093,9.41826 -8.06348,5.35527 -17.22125,7.11252 -26.99214,7.83891 -5.16128,0.26177 -10.28195,-0.24441 -15.10035,-2.25746 -5.46805,-2.60886 -10.80312,-6.01575 -13.72726,-11.51254 -0.2186,-0.79406 -0.53238,-1.56787 -0.65579,-2.38217 -0.74201,-4.89583 1.3689,-9.79479 3.62555,-13.98233 4.17442,-5.01264 9.22149,-9.12956 15.50568,-11.20607 0,0 14.1227,-0.34604 14.1227,-0.34604 z"
       inkscape:connector-curvature="0" />
    <path
       style="opacity:1;fill:#ffe56c;fill-opacity:1;fill-rule:nonzero;stroke:none;stroke-width:5.38100004;stroke-linecap:butt;stroke-linejoin:miter;stroke-miterlimit:4;stroke-dasharray:none;stroke-dashoffset:0;stroke-opacity:1"
       id="path4189-19-5-1-3"
       d="m 403.60512,359.48707 c -6.32731,1.65399 -11.4921,5.51055 -15.73937,10.34956 -2.95371,4.82062 -4.75148,9.3899 -3.07184,14.98689 3.01113,5.03803 8.13438,8.09317 13.39175,10.3462 4.84113,1.78757 9.87319,2.0105 14.94943,1.58319 7.79973,-1.44646 -4.76506,0.90229 -8.9916,1.40082 -0.80125,0.0945 1.54112,-0.48187 2.29444,-0.77075 2.25366,-0.86422 4.33047,-2.01115 6.38873,-3.25579 3.60465,-2.02402 6.06267,-5.26462 8.15794,-8.73904 1.84614,-3.43932 2.70001,-7.06639 2.19649,-10.93012 -2.10265,-5.83387 -7.74984,-7.48939 -13.24838,-8.76708 -4.4709,-0.59416 -18.35076,1.83958 2.12172,-1.0346 0,0 -13.84207,0.36873 -13.84207,0.36873 l 0,0 c 8.70654,-1.72467 16.37451,-4.47657 25.01765,-3.29601 6.29667,1.69464 11.48838,3.73416 13.80598,10.34237 0.5866,4.16593 -0.18181,8.07514 -2.08833,11.84507 -1.99716,3.65644 -4.47847,7.2486 -8.12093,9.41826 -8.06348,5.35527 -17.22125,7.11252 -26.99214,7.83891 -5.16128,0.26177 -10.28195,-0.24441 -15.10035,-2.25746 -5.46805,-2.60886 -10.80312,-6.01575 -13.72726,-11.51254 -0.2186,-0.79406 -0.53238,-1.56787 -0.65579,-2.38217 -0.74201,-4.89583 1.3689,-9.79479 3.62555,-13.98233 4.17442,-5.01264 9.22149,-9.12956 15.50568,-11.20607 0,0 14.1227,-0.34604 14.1227,-0.34604 z"
       inkscape:connector-curvature="0" />
    <path
       style="opacity:1;fill:#ffe56c;fill-opacity:1;fill-rule:nonzero;stroke:none;stroke-width:5.38100004;stroke-linecap:butt;stroke-linejoin:miter;stroke-miterlimit:4;stroke-dasharray:none;stroke-dashoffset:0;stroke-opacity:1"
       id="path4193-9-3-8-1-5"
       d="m 410.79347,275.61615 c 0.57194,9.53362 0.73545,19.08383 0.87393,28.63142 0.0344,11.48415 0.36932,22.97458 0.0435,34.45591 -0.51722,6.96896 -0.35852,14.00309 -1.09502,20.95412 0,0 -13.89665,2.02209 -13.89665,2.02209 l 0,0 c 1.02043,-6.89409 0.81937,-13.94353 1.45343,-20.87663 0.41347,-11.46153 0.11919,-22.93625 0.0448,-34.40226 -0.17837,-9.48696 -0.3265,-18.99755 -1.32,-28.44152 0,0 13.89605,-2.34313 13.89605,-2.34313 z"
       inkscape:connector-curvature="0" />
    <path
       style="opacity:1;fill:#ffffff;fill-opacity:1;stroke:none;stroke-width:17.90200043;stroke-linejoin:round;stroke-miterlimit:4;stroke-dasharray:none;stroke-opacity:1"
       id="path4627"
       d="m 256.54694,190.708 c 3.60869,1.2116 7.30055,2.21548 10.90953,3.43161 3.35541,0.86598 6.57502,2.1303 9.71923,3.57918 3.21665,1.95222 6.81826,3.11924 10.18031,4.75777 2.47133,1.12563 4.784,2.68845 6.9425,4.33359 1.99716,1.05497 3.85724,2.3511 5.86931,3.38916 2.21206,1.61338 4.68867,2.81609 7.09849,4.10155 2.16729,1.29784 4.5282,2.03807 6.86025,2.95481 3.12793,1.53129 5.62882,3.99488 8.5272,5.88805 2.81982,1.6153 5.66337,3.19185 8.47693,4.81959 3.21821,1.42514 6.45647,2.76849 9.54266,4.47765 3.44104,1.505 6.96752,2.90196 10.554,4.03322 2.77274,0.71807 5.49334,1.61582 8.21788,2.50025 2.66228,0.97324 5.20273,2.24575 7.87217,3.18976 2.19243,1.07754 4.22649,2.39198 6.3021,3.66317 0.34878,0.16045 0.71186,0.29287 1.04634,0.48133 1.67259,0.9424 0.27319,0.39601 1.9386,1.19492 1.02414,0.4913 2.08715,0.70827 3.11002,1.21448 0,0 -13.62967,3.80733 -13.62967,3.80733 l 0,0 c -2.1525,-0.84013 -4.17345,-1.86232 -6.13668,-3.08823 -1.99068,-1.27722 -4.05386,-2.44666 -6.22078,-3.40099 -2.59924,-1.07207 -5.17497,-2.195 -7.83023,-3.12882 -2.72089,-0.89775 -5.48008,-1.67124 -8.21824,-2.51444 -3.56479,-1.28592 -7.14668,-2.58576 -10.53991,-4.27876 -3.15273,-1.62856 -6.48084,-2.85215 -9.62535,-4.492 -2.84998,-1.58914 -5.65611,-3.25067 -8.44962,-4.93709 -2.78378,-1.92795 -5.3268,-4.29906 -8.52086,-5.54245 -2.41026,-0.83658 -4.65478,-1.94796 -6.90038,-3.15661 -2.3918,-1.33624 -4.8545,-2.54337 -7.11969,-4.09459 -1.99664,-1.14468 -3.99723,-2.29865 -5.92039,-3.55987 -2.19826,-1.49259 -4.33211,-3.10498 -6.82208,-4.09195 -3.40769,-1.52491 -6.84805,-2.97921 -10.14768,-4.73739 -3.1606,-1.34591 -6.37524,-2.51445 -9.68712,-3.43377 -3.6538,-1.12239 -7.26801,-2.37428 -10.95752,-3.36852 0,0 13.55868,-3.99194 13.55868,-3.99194 z"
       inkscape:connector-curvature="0" />
    <path
       style="opacity:1;fill:#ffffff;fill-opacity:1;stroke:none;stroke-width:17.90200043;stroke-linejoin:round;stroke-miterlimit:4;stroke-dasharray:none;stroke-opacity:1"
       id="path4629"
       d="m 252.13191,178.14615 c 5.25016,2.33166 10.73904,3.98561 16.32985,5.27388 7.51014,1.89485 15.12626,3.29002 22.73226,4.72639 7.04161,0.99479 14.05255,2.16757 21.07092,3.31149 7.17252,1.52113 14.33373,3.0861 21.48412,4.70692 8.57251,2.00807 17.0372,4.40269 25.46297,6.94727 8.87182,2.59668 17.51318,5.88626 26.44128,8.28555 8.76396,1.8723 17.5568,3.61641 26.44339,4.79123 8.70828,1.31006 17.45648,2.28851 26.11443,3.91527 10.07332,2.30109 20.17594,4.5209 30.10002,7.40887 10.88015,3.40011 22.00179,5.86291 33.12147,8.31507 9.35364,1.83092 18.86316,2.52074 28.37068,2.86128 7.68809,0.41314 15.29434,1.59059 22.96234,2.23836 6.5159,0.66562 13.08191,0.3899 19.60042,0.91984 5.2189,0.54876 10.45406,0.89668 15.69743,1.0866 4.62138,0.23271 9.2134,0.89663 13.83644,1.21807 4.78163,0.28319 9.57292,0.31517 14.36138,0.3343 3.65344,-0.20491 6.97824,0.76886 10.10304,2.58457 0,0 -13.58326,3.6853 -13.58326,3.6853 l 0,0 c -3.10853,-1.5244 -6.38964,-2.10838 -9.85805,-1.94626 -4.79019,-0.0477 -9.58406,-0.0971 -14.36465,-0.43247 -4.61229,-0.36688 -9.2029,-1.01975 -13.82893,-1.17105 -5.22519,-0.23708 -10.43714,-0.65857 -15.64452,-1.14739 -6.49199,-0.39129 -13.01119,-0.30145 -19.48839,-0.97935 -7.64231,-0.69196 -15.23845,-1.82997 -22.90977,-2.18637 -9.50914,-0.41714 -19.00862,-1.22989 -28.35286,-3.12461 -11.10234,-2.49807 -22.17899,-5.10498 -33.07463,-8.41435 -9.96271,-2.81162 -20.07797,-5.04641 -30.19189,-7.24215 -8.66798,-1.55496 -17.41376,-2.54426 -26.12089,-3.84783 -8.88199,-1.25903 -17.68811,-2.99042 -26.43441,-4.98197 -8.91416,-2.4836 -17.58416,-5.71995 -26.46718,-8.31331 -8.44741,-2.52552 -16.9384,-4.88195 -25.54271,-6.82157 -7.14905,-1.59038 -14.2893,-3.22303 -21.4785,-4.62479 -7.01919,-1.16392 -14.04988,-2.24234 -21.07889,-3.34166 -7.60053,-1.41668 -15.17669,-2.95973 -22.6863,-4.80621 -5.73167,-1.37655 -11.38186,-3.06 -16.76842,-5.48581 0,0 13.64181,-3.74311 13.64181,-3.74311 z"
       inkscape:connector-curvature="0" />
    <path
       style="opacity:1;fill:#ff8c6c;fill-opacity:1;fill-rule:nonzero;stroke:none;stroke-width:5.38100004;stroke-linecap:butt;stroke-linejoin:miter;stroke-miterlimit:4;stroke-dasharray:none;stroke-dashoffset:0;stroke-opacity:1"
       id="path4189-19-5-1-3-9"
       d="m 657.03369,364.85111 c -6.32731,1.65399 -11.4921,5.51055 -15.73937,10.34956 -2.95371,4.82062 -4.75148,9.3899 -3.07184,14.98689 3.01113,5.03803 8.13438,8.09317 13.39175,10.3462 4.84113,1.78757 9.87319,2.0105 14.94943,1.58319 7.79973,-1.44646 -4.76506,0.90229 -8.9916,1.40082 -0.80125,0.0945 1.54112,-0.48187 2.29444,-0.77075 2.25366,-0.86422 4.33047,-2.01115 6.38873,-3.25579 3.60465,-2.02402 6.06267,-5.26462 8.15794,-8.73904 1.84614,-3.43932 2.70001,-7.06639 2.19649,-10.93012 -2.10265,-5.83387 -7.74984,-7.48939 -13.24838,-8.76708 -4.4709,-0.59416 -18.35076,1.83958 2.12172,-1.0346 0,0 -13.84207,0.36873 -13.84207,0.36873 l 0,0 c 8.70654,-1.72467 16.37451,-4.47657 25.01765,-3.29601 6.29667,1.69464 11.48838,3.73416 13.80598,10.34237 0.5866,4.16593 -0.18181,8.07514 -2.08833,11.84507 -1.99716,3.65644 -4.47847,7.2486 -8.12093,9.41826 -8.06348,5.35527 -17.22125,7.11252 -26.99214,7.83891 -5.16128,0.26177 -10.28195,-0.24441 -15.10035,-2.25746 -5.46805,-2.60886 -10.80312,-6.01575 -13.72726,-11.51254 -0.2186,-0.79406 -0.53238,-1.56787 -0.65579,-2.38217 -0.74201,-4.89583 1.3689,-9.79479 3.62555,-13.98233 4.17442,-5.01264 9.22149,-9.12956 15.50568,-11.20607 0,0 14.1227,-0.34604 14.1227,-0.34604 z"
       inkscape:connector-curvature="0" />
    <path
       style="opacity:1;fill:#ff8c6c;fill-opacity:1;fill-rule:nonzero;stroke:none;stroke-width:5.38100004;stroke-linecap:butt;stroke-linejoin:miter;stroke-miterlimit:4;stroke-dasharray:none;stroke-dashoffset:0;stroke-opacity:1"
       id="path4193-9-3-8-1-5-5"
       d="m 664.22204,280.98019 c 0.57194,9.53362 0.73545,19.08383 0.87393,28.63142 0.0344,11.48415 0.36932,22.97458 0.0435,34.45591 -0.51722,6.96896 -0.35852,14.00309 -1.09502,20.95412 0,0 -13.89665,2.02209 -13.89665,2.02209 l 0,0 c 1.02043,-6.89409 0.81937,-13.94353 1.45343,-20.87663 0.41347,-11.46153 0.11919,-22.93625 0.0448,-34.40226 -0.17837,-9.48696 -0.3265,-18.99755 -1.32,-28.44152 0,0 13.89605,-2.34313 13.89605,-2.34313 z"
       inkscape:connector-curvature="0" />
    <path
       style="opacity:1;fill:#ff8c6c;fill-opacity:1;fill-rule:nonzero;stroke:none;stroke-width:5.38100004;stroke-linecap:butt;stroke-linejoin:miter;stroke-miterlimit:4;stroke-dasharray:none;stroke-dashoffset:0;stroke-opacity:1"
       id="path4189-19-5-1-3-9-5"
       d="m 658.46226,490.56539 c -6.32731,1.65399 -11.4921,5.51055 -15.73937,10.34956 -2.95371,4.82062 -4.75148,9.3899 -3.07184,14.98689 3.01113,5.03803 8.13438,8.09317 13.39175,10.3462 4.84113,1.78757 9.87319,2.0105 14.94943,1.58319 7.79973,-1.44646 -4.76506,0.90229 -8.9916,1.40082 -0.80125,0.0945 1.54112,-0.48187 2.29444,-0.77075 2.25366,-0.86422 4.33047,-2.01115 6.38873,-3.25579 3.60465,-2.02402 6.06267,-5.26462 8.15794,-8.73904 1.84614,-3.43932 2.70001,-7.06639 2.19649,-10.93012 -2.10265,-5.83387 -7.74984,-7.48939 -13.24838,-8.76708 -4.4709,-0.59416 -18.35076,1.83958 2.12172,-1.0346 0,0 -13.84207,0.36873 -13.84207,0.36873 l 0,0 c 8.70654,-1.72467 16.37451,-4.47657 25.01765,-3.29601 6.29667,1.69464 11.48838,3.73416 13.80598,10.34237 0.5866,4.16593 -0.18181,8.07514 -2.08833,11.84507 -1.99716,3.65644 -4.47847,7.2486 -8.12093,9.41826 -8.06348,5.35527 -17.22125,7.11252 -26.99214,7.83891 -5.16128,0.26177 -10.28195,-0.24441 -15.10035,-2.25746 -5.46805,-2.60886 -10.80312,-6.01575 -13.72726,-11.51254 -0.2186,-0.79406 -0.53238,-1.56787 -0.65579,-2.38217 -0.74201,-4.89583 1.3689,-9.79479 3.62555,-13.98233 4.17442,-5.01264 9.22149,-9.12956 15.50568,-11.20607 0,0 14.1227,-0.34604 14.1227,-0.34604 z"
       inkscape:connector-curvature="0" />
    <path
       style="opacity:1;fill:#ff8c6c;fill-opacity:1;fill-rule:nonzero;stroke:none;stroke-width:5.38100004;stroke-linecap:butt;stroke-linejoin:miter;stroke-miterlimit:4;stroke-dasharray:none;stroke-dashoffset:0;stroke-opacity:1"
       id="path4193-9-3-8-1-5-5-3"
       d="m 665.65061,406.69447 c 0.57194,9.53362 0.73545,19.08383 0.87393,28.63142 0.0344,11.48415 0.36932,22.97458 0.0435,34.45591 -0.51722,6.96896 -0.35852,14.00309 -1.09502,20.95412 0,0 -13.89665,2.02209 -13.89665,2.02209 l 0,0 c 1.02043,-6.89409 0.81937,-13.94353 1.45343,-20.87663 0.41347,-11.46153 0.11919,-22.93625 0.0448,-34.40226 -0.17837,-9.48696 -0.3265,-18.99755 -1.32,-28.44152 0,0 13.89605,-2.34313 13.89605,-2.34313 z"
       inkscape:connector-curvature="0" />
    <path
       style="opacity:1;fill:#459dff;fill-opacity:1;fill-rule:nonzero;stroke:none;stroke-width:5.38100004;stroke-linecap:butt;stroke-linejoin:miter;stroke-miterlimit:4;stroke-dasharray:none;stroke-dashoffset:0;stroke-opacity:1"
       id="path4193-9-3-8-1-8"
       d="m 210.79346,332.55162 c 0.57194,9.53362 0.73545,19.08383 0.87393,28.63142 0.0344,11.48415 0.36932,22.97458 0.0435,34.45591 -0.51722,6.96896 -0.35852,14.00309 -1.09502,20.95412 0,0 -13.89665,2.02209 -13.89665,2.02209 l 0,0 c 1.02043,-6.89409 0.81937,-13.94353 1.45343,-20.87663 0.41347,-11.46153 0.11919,-22.93625 0.0448,-34.40226 -0.17837,-9.48696 -0.3265,-18.99755 -1.32,-28.44152 0,0 13.89605,-2.34313 13.89605,-2.34313 z"
       inkscape:connector-curvature="0" />
    <path
       style="opacity:1;fill:#459dff;fill-opacity:1;fill-rule:nonzero;stroke:none;stroke-width:5.38100004;stroke-linecap:butt;stroke-linejoin:miter;stroke-miterlimit:4;stroke-dasharray:none;stroke-dashoffset:0;stroke-opacity:1"
       id="path4189-19-5-1-0-8"
       d="m 201.3194,418.99397 c -6.32731,1.65399 -11.4921,5.51055 -15.73937,10.34956 -2.95371,4.82062 -4.75148,9.3899 -3.07184,14.98689 3.01113,5.03803 8.13438,8.09317 13.39175,10.3462 4.84113,1.78757 9.87319,2.0105 14.94943,1.58319 7.79973,-1.44646 -4.76506,0.90229 -8.9916,1.40082 -0.80125,0.0945 1.54112,-0.48187 2.29444,-0.77075 2.25366,-0.86422 4.33047,-2.01115 6.38873,-3.25579 3.60465,-2.02402 6.06267,-5.26462 8.15794,-8.73904 1.84614,-3.43932 2.70001,-7.06639 2.19649,-10.93012 -2.10265,-5.83387 -7.74984,-7.48939 -13.24838,-8.76708 -4.4709,-0.59416 -18.35076,1.83958 2.12172,-1.0346 0,0 -13.84207,0.36873 -13.84207,0.36873 l 0,0 c 8.70654,-1.72467 16.37451,-4.47657 25.01765,-3.29601 6.29667,1.69464 11.48838,3.73416 13.80598,10.34237 0.5866,4.16593 -0.18181,8.07514 -2.08833,11.84507 -1.99716,3.65644 -4.47847,7.2486 -8.12093,9.41826 -8.06348,5.35527 -17.22125,7.11252 -26.99214,7.83891 -5.16128,0.26177 -10.28195,-0.24441 -15.10035,-2.25746 -5.46805,-2.60886 -10.80312,-6.01575 -13.72726,-11.51254 -0.2186,-0.79406 -0.53238,-1.56787 -0.65579,-2.38217 -0.74201,-4.89583 1.3689,-9.79479 3.62555,-13.98233 4.17442,-5.01264 9.22149,-9.12956 15.50568,-11.20607 0,0 14.1227,-0.34604 14.1227,-0.34604 z"
       inkscape:connector-curvature="0" />
    <path
       style="opacity:1;fill:#ffffff;fill-opacity:1;stroke:none;stroke-width:17.90200043;stroke-linejoin:round;stroke-miterlimit:4;stroke-dasharray:none;stroke-opacity:1"
       id="path4687"
       d="m 227.35464,433.50474 c 8.2489,-2.65673 16.29505,-5.87145 24.56388,-8.4675 8.37948,-2.75753 16.9211,-4.94033 25.48162,-7.04381 6.1517,-1.37577 12.27009,-2.86206 18.30058,-4.70031 6.94008,-2.21739 13.83028,-4.58545 20.72715,-6.93348 7.02503,-2.56392 14.206,-4.65039 21.31004,-6.97634 7.19906,-3.23773 47.00922,-9.26871 15.6262,-3.92341 2.32488,-0.59413 4.68243,-1.01692 6.94485,-1.8272 0,0 14.18487,-0.74752 14.18487,-0.74752 l 0,0 c -1.98956,1.56616 -4.74299,1.47984 -7.06704,2.25703 -29.05714,5.34255 -13.26352,2.41924 -3.95698,0.77085 0.82705,-0.14649 -1.65364,0.29729 -2.47513,0.47235 -3.18866,0.67952 -6.32719,1.57343 -9.4342,2.55643 -7.08434,2.3644 -14.27948,4.37676 -21.2893,6.96241 -6.8849,2.35491 -13.77783,4.68051 -20.68474,6.96873 -6.03279,1.92654 -12.1618,3.47425 -18.35715,4.78675 -8.60147,2.11933 -17.22473,4.1612 -25.63868,6.96874 -8.17227,2.47053 -16.0884,5.63837 -24.15509,8.42307 0,0 -14.08088,0.45321 -14.08088,0.45321 z"
       inkscape:connector-curvature="0" />
    <path
       style="opacity:1;fill:#459dff;fill-opacity:1;fill-rule:nonzero;stroke:none;stroke-width:5.38100004;stroke-linecap:butt;stroke-linejoin:miter;stroke-miterlimit:4;stroke-dasharray:none;stroke-dashoffset:0;stroke-opacity:1"
       id="path4193-9-3-8-1-8-7"
       d="m 209.3649,458.2659 c 0.57194,9.53362 0.73545,19.08383 0.87393,28.63142 0.0344,11.48415 0.36932,22.97458 0.0435,34.45591 -0.51722,6.96896 -0.35852,14.00309 -1.09502,20.95412 0,0 -13.89665,2.02209 -13.89665,2.02209 l 0,0 c 1.02043,-6.89409 0.81937,-13.94353 1.45343,-20.87663 0.41347,-11.46153 0.11919,-22.93625 0.0448,-34.40226 -0.17837,-9.48696 -0.3265,-18.99755 -1.32,-28.44152 0,0 13.89605,-2.34313 13.89605,-2.34313 z"
       inkscape:connector-curvature="0" />
    <path
       style="opacity:1;fill:#459dff;fill-opacity:1;fill-rule:nonzero;stroke:none;stroke-width:5.38100004;stroke-linecap:butt;stroke-linejoin:miter;stroke-miterlimit:4;stroke-dasharray:none;stroke-dashoffset:0;stroke-opacity:1"
       id="path4189-19-5-1-0-8-6"
       d="m 199.89084,544.70825 c -6.32731,1.65399 -11.4921,5.51055 -15.73937,10.34956 -2.95371,4.82062 -4.75148,9.3899 -3.07184,14.98689 3.01113,5.03803 8.13438,8.09317 13.39175,10.3462 4.84113,1.78757 9.87319,2.0105 14.94943,1.58319 7.79973,-1.44646 -4.76506,0.90229 -8.9916,1.40082 -0.80125,0.0945 1.54112,-0.48187 2.29444,-0.77075 2.25366,-0.86422 4.33047,-2.01115 6.38873,-3.25579 3.60465,-2.02402 6.06267,-5.26462 8.15794,-8.73904 1.84614,-3.43932 2.70001,-7.06639 2.19649,-10.93012 -2.10265,-5.83387 -7.74984,-7.48939 -13.24838,-8.76708 -4.4709,-0.59416 -18.35076,1.83958 2.12172,-1.0346 0,0 -13.84207,0.36873 -13.84207,0.36873 l 0,0 c 8.70654,-1.72467 16.37451,-4.47657 25.01765,-3.29601 6.29667,1.69464 11.48838,3.73416 13.80598,10.34237 0.5866,4.16593 -0.18181,8.07514 -2.08833,11.84507 -1.99716,3.65644 -4.47847,7.2486 -8.12093,9.41826 -8.06348,5.35527 -17.22125,7.11252 -26.99214,7.83891 -5.16128,0.26177 -10.28195,-0.24441 -15.10035,-2.25746 -5.46805,-2.60886 -10.80312,-6.01575 -13.72726,-11.51254 -0.2186,-0.79406 -0.53238,-1.56787 -0.65579,-2.38217 -0.74201,-4.89583 1.3689,-9.79479 3.62555,-13.98233 4.17442,-5.01264 9.22149,-9.12956 15.50568,-11.20607 0,0 14.1227,-0.34604 14.1227,-0.34604 z"
       inkscape:connector-curvature="0" />
    <path
       style="opacity:1;fill:#ffffff;fill-opacity:1;stroke:none;stroke-width:17.90200043;stroke-linejoin:round;stroke-miterlimit:4;stroke-dasharray:none;stroke-opacity:1"
       id="path4707"
       d="m 242.20583,570.17746 c 4.97134,-0.61066 9.97677,-0.93495 14.97838,-1.17775 4.03156,-0.18312 8.06717,-0.23966 12.10238,-0.24877 -0.90635,0.1379 5.07381,-0.71064 3.81392,-0.47771 -3.76848,0.69673 -7.55202,1.30939 -11.32942,1.95603 -0.83861,0.14356 1.67467,-0.30167 2.51301,-0.44677 16.78975,-2.90604 10.83018,-2.09471 18.79721,-3.13126 4.16838,-0.55641 8.36825,-0.68591 12.56694,-0.74185 4.82676,0.2142 9.60285,-0.29912 14.40233,-0.7041 6.51196,-0.34751 13.00478,-0.81346 19.48812,-1.52543 10.23382,-0.94731 20.3949,-2.46657 30.52918,-4.15252 14.69912,-2.5928 29.41282,-5.07025 44.18668,-7.19631 14.50676,-2.22204 29.12652,-3.55771 43.68531,-5.37027 10.27105,-1.26691 20.54741,-2.57613 30.76508,-4.22831 9.07515,-1.46764 18.22519,-2.43749 27.27818,-4.03758 1.36775,-0.23875 5.4731,-0.94277 4.10327,-0.71625 -3.13427,0.51829 -6.24878,1.16369 -9.39666,1.59158 -1.41298,0.19207 2.78901,-0.59605 4.18577,-0.88327 1.42328,-0.29268 2.84442,-0.59748 4.27422,-0.85641 16.06481,-2.90933 12.25243,-2.30742 21.32627,-3.65726 5.74871,-0.56826 11.44664,-1.48982 17.19656,-2.0491 4.69431,-0.77839 9.40387,-1.39767 14.09616,-2.18335 7.91616,-1.24312 -6.15071,1.15896 -9.24586,1.61561 -0.73331,0.10819 1.43355,-0.37798 2.14782,-0.57616 2.16184,-0.59981 4.30837,-1.1968 6.49281,-1.71076 8.18312,-1.88016 34.47129,-5.55546 7.03139,-1.11433 -0.64393,0.10422 1.2739,-0.2817 1.90879,-0.43146 0.72076,-0.17003 1.43866,-0.35192 2.158,-0.52788 4.34377,-1.06415 8.74543,-1.88334 13.05042,-3.09827 9.0739,-2.3791 37.40923,-6.58744 8.90734,-1.70563 0.52917,-0.0953 1.05787,-0.19328 1.5875,-0.286 5.11567,-0.8956 10.22829,-1.80902 15.34838,-2.67897 0.73368,-0.12466 2.54688,-0.30789 3.29303,-0.37232 0.53317,-0.046 2.12741,-0.21469 1.60114,-0.1176 -4.10746,0.75776 -8.23527,1.40075 -12.35291,2.10113 9.06483,-2.00301 34.58072,-6.12097 6.02549,-1.23438 0,0 14.15489,-0.44104 14.15489,-0.44104 l 0,0 c -17.32163,3.30769 -20.96728,3.94219 -2.26324,0.58839 3.53242,-0.63339 -7.20729,1.0337 -3.80582,0.819 -5.04087,0.87785 -10.07547,1.79254 -15.12262,2.63357 -1.0602,0.17666 -2.14052,0.20358 -3.20568,0.34732 -0.54955,0.0741 -2.19115,0.34335 -1.64561,0.24392 3.49484,-0.63697 17.25914,-3.08607 10.49453,-1.85518 -5.05116,0.87394 -10.09788,1.77393 -15.15348,2.62182 -0.46525,0.078 -1.87027,0.24275 -1.40666,0.15554 4.09095,-0.76959 8.19703,-1.45653 12.2922,-2.20332 0.49231,-0.0898 -0.99106,0.14164 -1.48323,0.23219 -1.3866,0.25508 -1.8269,0.39765 -3.21453,0.75868 -4.31438,1.25908 -8.70903,2.14861 -13.08805,3.15792 -6.60303,1.58499 -11.83912,2.44338 -19.32157,3.70317 -0.55789,0.0939 -2.24088,0.30811 -1.68508,0.20259 3.94876,-0.74968 7.91301,-1.41545 11.86724,-2.1357 0.648,-0.11803 -1.29893,0.21935 -1.9484,0.32902 -2.19379,0.46278 -4.35909,0.97583 -6.5083,1.61975 -0.71613,0.21455 -1.40457,0.53233 -2.13787,0.67776 -5.23744,1.03876 -10.50316,1.92968 -15.75885,2.87175 -0.74798,0.13407 -1.50109,0.23774 -2.25164,0.35661 -4.68689,0.79229 -9.40233,1.38363 -14.10294,2.08846 -5.68787,0.59849 -11.34483,1.45339 -17.03123,2.06559 -1.37008,0.21122 -18.5312,2.88787 5.50634,-1.07994 1.42913,-0.23591 -2.84612,0.54092 -4.26458,0.83426 -1.39089,0.28764 -2.7672,0.64562 -4.16297,0.90857 -10.10105,1.90289 -13.63325,2.50246 -21.49849,3.86267 -9.05453,1.51216 -18.18408,2.53305 -27.246,4.00668 -10.1768,1.56675 -20.389,2.92305 -30.61475,4.1263 -14.48768,1.72549 -29.02183,3.09672 -43.44617,5.32108 -14.85691,2.16503 -29.65079,4.69986 -44.43556,7.311 -10.20349,1.69292 -20.44115,3.1548 -30.74007,4.14063 -6.54744,0.68419 -13.10274,1.15515 -19.6723,1.55691 -4.83312,0.42524 -9.65454,0.75961 -14.51166,0.63948 -4.16404,0.0911 -8.32712,0.30141 -12.45648,0.8776 -6.21452,0.87388 -3.43599,0.51634 8.40451,-1.61196 0.83007,-0.1492 -1.65916,0.30383 -2.48993,0.44905 -6.567,1.14792 -13.16195,2.76018 -19.85849,3.12052 -3.99737,0.0289 -7.99554,0.0773 -11.98861,0.28092 -5.06379,0.27969 -10.1112,0.73358 -15.16297,1.16159 0,0 13.44789,-4.36949 13.44789,-4.36949 z"
       inkscape:connector-curvature="0" />
    <path
       style="opacity:1;fill:#ffffff;fill-opacity:1;stroke:none;stroke-width:17.90200043;stroke-linejoin:round;stroke-miterlimit:4;stroke-dasharray:none;stroke-opacity:1"
       id="path4709"
       d="m 174.43958,578.2216 c -4.35409,1.16211 -8.65856,2.52853 -12.91736,4.00063 -3.97827,1.64369 -8.01952,3.12905 -12.01609,4.7239 -3.25671,1.27717 -6.46417,2.6721 -9.70403,3.99049 -4.17067,1.74057 -8.11645,3.95032 -12.21472,5.84707 -3.44178,1.56579 -6.89731,3.10424 -10.38904,4.55649 -2.98638,1.35202 -6.0462,2.5027 -9.11026,3.66153 -3.86022,1.69749 -7.53951,3.76835 -11.420325,5.4261 -2.780781,1.0165 -5.557645,2.04546 -8.320814,3.10939 -2.341874,0.81737 -4.617418,1.77306 -6.973824,2.55032 -1.391676,0.62231 -2.85456,1.03886 -4.308525,1.48257 0,0 -14.141099,0.51514 -14.141099,0.51514 l 0,0 c 1.399993,-0.6395 2.910307,-0.80968 4.313473,-1.46152 1.11914,-0.52217 2.24234,-0.71961 3.391957,-1.15549 0.825233,-0.31289 1.502858,-0.66572 2.297043,-1.05212 0.424979,-0.16147 0.874441,-0.24916 1.311662,-0.37374 2.801898,-1.0169 5.549615,-2.18042 8.392258,-3.07505 3.95223,-1.50785 7.644857,-3.55666 11.420212,-5.44334 3.023524,-1.21556 6.113682,-2.2381 9.070952,-3.61062 3.47274,-1.54894 7.03937,-2.88551 10.46584,-4.53898 4.13827,-1.79761 8.05181,-4.03507 12.1674,-5.88034 3.20748,-1.38142 6.44208,-2.70118 9.69107,-3.98235 3.94472,-1.77825 8.15636,-2.95516 12.07976,-4.80341 4.18085,-1.57909 8.49926,-2.83892 12.78581,-4.09337 0,0 14.12865,-0.3933 14.12865,-0.3933 z"
       inkscape:connector-curvature="0" />
    <path
       style="opacity:1;fill:#00be0e;fill-opacity:1;fill-rule:nonzero;stroke:none;stroke-width:5.38100004;stroke-linecap:butt;stroke-linejoin:miter;stroke-miterlimit:4;stroke-dasharray:none;stroke-dashoffset:0;stroke-opacity:1"
       id="path4189-19-5-1-9"
       d="m 37.319405,610.0585 c -6.32731,1.65399 -11.4921,5.51055 -15.73937,10.34956 -2.95371,4.82062 -4.75148,9.3899 -3.07184,14.98689 3.01113,5.03803 8.13438,8.09317 13.39175,10.3462 4.84113,1.78757 9.87319,2.0105 14.94943,1.58319 7.79973,-1.44646 -4.76506,0.90229 -8.9916,1.40082 -0.80125,0.0945 1.54112,-0.48187 2.29444,-0.77075 2.25366,-0.86422 4.33047,-2.01115 6.38873,-3.25579 3.60465,-2.02402 6.06267,-5.26462 8.15794,-8.73904 1.84614,-3.43932 2.70001,-7.06639 2.19649,-10.93012 -2.10265,-5.83387 -7.74984,-7.48939 -13.24838,-8.76708 -4.4709,-0.59416 -18.35076,1.83958 2.12172,-1.0346 0,0 -13.84207,0.36873 -13.84207,0.36873 l 0,0 c 8.70654,-1.72467 16.37451,-4.47657 25.01765,-3.29601 6.29667,1.69464 11.48838,3.73416 13.80598,10.34237 0.5866,4.16593 -0.18181,8.07514 -2.08833,11.84507 -1.99716,3.65644 -4.47847,7.2486 -8.12093,9.41826 -8.06348,5.35527 -17.22125,7.11252 -26.99214,7.83891 -5.16128,0.26177 -10.28195,-0.24441 -15.10035,-2.25746 -5.46805,-2.60886 -10.8031201,-6.01575 -13.7272601,-11.51254 -0.2186,-0.79406 -0.53238,-1.56787 -0.65579,-2.38217 -0.74201,-4.89583 1.3689001,-9.79479 3.62555,-13.98233 4.1744201,-5.01264 9.2214901,-9.12956 15.5056801,-11.20607 0,0 14.1227,-0.34604 14.1227,-0.34604 z"
       inkscape:connector-curvature="0" />
    <path
       style="opacity:1;fill:#00be0e;fill-opacity:1;fill-rule:nonzero;stroke:none;stroke-width:5.38100004;stroke-linecap:butt;stroke-linejoin:miter;stroke-miterlimit:4;stroke-dasharray:none;stroke-dashoffset:0;stroke-opacity:1"
       id="path4193-9-3-8-1-8-7-9"
       d="m 43.079179,651.12304 c 0.57194,9.53362 0.73545,19.08383 0.87393,28.63142 0.0344,11.48415 0.36932,22.97458 0.0435,34.45591 -0.51722,6.96896 -0.35852,14.00309 -1.09502,20.95412 0,0 -13.89665,2.02209 -13.89665,2.02209 l 0,0 c 1.02043,-6.89409 0.81937,-13.94353 1.45343,-20.87663 0.41347,-11.46153 0.11919,-22.93625 0.0448,-34.40226 -0.17837,-9.48696 -0.3265,-18.99755 -1.32,-28.44152 0,0 13.89605,-2.34313 13.89605,-2.34313 z"
       inkscape:connector-curvature="0" />
    <path
       style="opacity:1;fill:#00be0e;fill-opacity:1;fill-rule:nonzero;stroke:none;stroke-width:5.38100004;stroke-linecap:butt;stroke-linejoin:miter;stroke-miterlimit:4;stroke-dasharray:none;stroke-dashoffset:0;stroke-opacity:1"
       id="path4189-19-5-1-0-8-6-2"
       d="m 33.605119,737.56539 c -6.32731,1.65399 -11.4921,5.51055 -15.73937,10.34956 -2.95371,4.82062 -4.75148,9.3899 -3.07184,14.98689 3.01113,5.03803 8.13438,8.09317 13.39175,10.3462 4.84113,1.78757 9.87319,2.0105 14.94943,1.58319 7.79973,-1.44646 -4.76506,0.90229 -8.9916,1.40082 -0.80125,0.0945 1.54112,-0.48187 2.29444,-0.77075 2.25366,-0.86422 4.33047,-2.01115 6.38873,-3.25579 3.60465,-2.02402 6.06267,-5.26462 8.15794,-8.73904 1.84614,-3.43932 2.70001,-7.06639 2.19649,-10.93012 -2.10265,-5.83387 -7.74984,-7.48939 -13.24838,-8.76708 -4.4709,-0.59416 -18.35076,1.83958 2.12172,-1.0346 0,0 -13.84207,0.36873 -13.84207,0.36873 l 0,0 c 8.70654,-1.72467 16.37451,-4.47657 25.01765,-3.29601 6.29667,1.69464 11.48838,3.73416 13.80598,10.34237 0.5866,4.16593 -0.18181,8.07514 -2.08833,11.84507 -1.99716,3.65644 -4.47847,7.2486 -8.12093,9.41826 -8.06348,5.35527 -17.22125,7.11252 -26.99214,7.83891 -5.16128,0.26177 -10.28195,-0.24441 -15.10035,-2.25746 C 9.26619,774.38568 3.9311193,770.97879 1.0069792,765.482 c -0.2186,-0.79406 -0.53238,-1.56787 -0.65579,-2.38217 -0.74201,-4.89583 1.3689001,-9.79479 3.6255501,-13.98233 4.1744207,-5.01264 9.2214897,-9.12956 15.5056797,-11.20607 0,0 14.1227,-0.34604 14.1227,-0.34604 z"
       inkscape:connector-curvature="0" />
    <path
       style="opacity:1;fill:#00be0e;fill-opacity:1;fill-rule:nonzero;stroke:none;stroke-width:5.38100004;stroke-linecap:butt;stroke-linejoin:miter;stroke-miterlimit:4;stroke-dasharray:none;stroke-dashoffset:0;stroke-opacity:1"
       id="path4193-9-3-8-1-8-7-9-1"
       d="m 38.507751,779.69447 c 0.57194,9.53362 0.73545,19.08383 0.87393,28.63142 0.0344,11.48415 0.36932,22.97458 0.0435,34.45591 -0.51722,6.96896 -0.35852,14.00309 -1.09502,20.95412 0,0 -13.89665,2.02209 -13.89665,2.02209 l 0,0 c 1.02043,-6.89409 0.81937,-13.94353 1.45343,-20.87663 0.41347,-11.46153 0.11919,-22.93625 0.0448,-34.40226 -0.17837,-9.48696 -0.3265,-18.99755 -1.32,-28.44152 0,0 13.89605,-2.34313 13.89605,-2.34313 z"
       inkscape:connector-curvature="0" />
    <path
       style="opacity:1;fill:#00be0e;fill-opacity:1;fill-rule:nonzero;stroke:none;stroke-width:5.38100004;stroke-linecap:butt;stroke-linejoin:miter;stroke-miterlimit:4;stroke-dasharray:none;stroke-dashoffset:0;stroke-opacity:1"
       id="path4189-19-5-1-0-8-6-2-8"
       d="m 29.033691,866.13682 c -6.32731,1.65399 -11.4921,5.51055 -15.73937,10.34956 -2.95371,4.82062 -4.7514804,9.3899 -3.07184,14.98689 3.01113,5.03803 8.13438,8.09317 13.39175,10.3462 4.84113,1.78757 9.87319,2.0105 14.94943,1.58319 7.79973,-1.44646 -4.76506,0.90229 -8.9916,1.40082 -0.80125,0.0945 1.54112,-0.48187 2.29444,-0.77075 2.25366,-0.86422 4.33047,-2.01115 6.38873,-3.25579 3.60465,-2.02402 6.06267,-5.26462 8.15794,-8.73904 1.84614,-3.43932 2.70001,-7.06639 2.19649,-10.93012 -2.10265,-5.83387 -7.74984,-7.48939 -13.24838,-8.76708 -4.4709,-0.59416 -18.35076,1.83958 2.12172,-1.0346 0,0 -13.84207,0.36873 -13.84207,0.36873 l 0,0 c 8.70654,-1.72467 16.37451,-4.47657 25.01765,-3.29601 6.296668,1.69464 11.488378,3.73416 13.805978,10.34237 0.5866,4.16593 -0.18181,8.07514 -2.08833,11.84507 -1.99716,3.65644 -4.47847,7.2486 -8.12093,9.41826 -8.063478,5.35527 -17.221248,7.11252 -26.992138,7.83891 -5.16128,0.26177 -10.28195,-0.24441 -15.10035,-2.25746 -5.4680494,-2.60886 -10.8031204,-6.01575 -13.7272604,-11.51254 -0.2186,-0.79406 -0.53238,-1.56787 -0.65579,-2.38217 -0.74201,-4.89583 1.3689,-9.79479 3.62555,-13.98233 4.174421,-5.01264 9.22149,-9.12956 15.5056804,-11.20607 0,0 14.1227,-0.34604 14.1227,-0.34604 z"
       inkscape:connector-curvature="0" />
    <path
       style="opacity:1;fill:#ffffff;fill-opacity:1;fill-rule:nonzero;stroke:none;stroke-width:5.38100004;stroke-linecap:butt;stroke-linejoin:miter;stroke-miterlimit:4;stroke-dasharray:none;stroke-dashoffset:0;stroke-opacity:1"
       id="path4193-9-3-8-5"
       d="m -234.34939,343.04472 c 0.57194,69.03519 0.73545,138.19052 0.87393,207.32687 0.0344,83.15944 0.36932,166.36435 0.0435,249.50337 -0.51722,50.46388 -0.35852,101.39968 -1.09502,151.73373 0,0 -13.89665,14.64243 -13.89665,14.64243 l 0,0 c 1.02043,-49.92173 0.81937,-100.96839 1.45343,-151.17261 0.41347,-82.99564 0.11919,-166.08679 0.0448,-249.11488 -0.17837,-68.69731 -0.3265,-137.56574 -1.32,-205.95175 0,0 13.89605,-16.96716 13.89605,-16.96716 z"
       inkscape:connector-curvature="0" />
    <path
       style="opacity:1;fill:#ffffff;fill-opacity:1;fill-rule:nonzero;stroke:none;stroke-width:5.38100004;stroke-linecap:butt;stroke-linejoin:miter;stroke-miterlimit:4;stroke-dasharray:none;stroke-dashoffset:0;stroke-opacity:1"
       id="path4189-19-5-3"
       d="m -242.96631,960.62993 c -6.32731,1.65399 -11.4921,5.51055 -15.73937,10.3496 -2.95371,4.8206 -4.75148,9.3899 -3.07184,14.9869 3.01113,5.038 8.13438,8.0931 13.39175,10.3462 4.84113,1.78747 9.87319,2.01047 14.94943,1.5831 7.79973,-1.4464 -4.76506,0.90227 -8.9916,1.40087 -0.80125,0.094 1.54112,-0.4819 2.29444,-0.7708 2.25366,-0.86417 4.33047,-2.01107 6.38873,-3.25577 3.60465,-2.024 6.06267,-5.2646 8.15794,-8.739 1.84614,-3.4393 2.70001,-7.0664 2.19649,-10.9301 -2.10265,-5.83391 -7.74984,-7.48943 -13.24838,-8.76712 -4.4709,-0.59416 -18.35076,1.83958 2.12172,-1.0346 0,0 -13.84207,0.36873 -13.84207,0.36873 l 0,0 c 8.70654,-1.72467 16.37451,-4.47657 25.01765,-3.29601 6.29667,1.69464 11.48838,3.73416 13.80598,10.3424 0.5866,4.1659 -0.18181,8.0751 -2.08833,11.845 -1.99716,3.6565 -4.47847,7.2486 -8.12093,9.4183 -8.06348,5.35527 -17.22125,7.11247 -26.99214,7.83887 -5.16128,0.2618 -10.28195,-0.2444 -15.10035,-2.2574 -5.46805,-2.60887 -10.80312,-6.01577 -13.72726,-11.51257 -0.2186,-0.794 -0.53238,-1.5679 -0.65579,-2.3822 -0.74201,-4.8958 1.3689,-9.7947 3.62555,-13.9823 4.17442,-5.01263 9.22149,-9.12955 15.50568,-11.20606 0,0 14.1227,-0.34604 14.1227,-0.34604 z"
       inkscape:connector-curvature="0" />
    <path
       style="opacity:1;fill:#ffffff;fill-opacity:1;stroke:none;stroke-width:17.90200043;stroke-linejoin:round;stroke-miterlimit:4;stroke-dasharray:none;stroke-opacity:1"
       id="path4796"
       d="m -211.58244,982.21709 c 7.55719,-2.33053 14.99616,-5.02983 22.46726,-7.62066 9.82703,-3.31396 19.37147,-7.37435 28.97718,-11.26554 9.69834,-4.0453 19.71829,-7.21425 29.59463,-10.77915 9.30971,-3.75969 18.39178,-8.0527 27.48118,-12.30944 7.935409,-3.53503 15.776394,-7.26893 23.635613,-10.97067 6.684052,-3.20818 13.254051,-6.6696 19.77375,-10.20132 5.839131,-3.06507 11.931587,-5.58635 17.972147,-8.21525 3.100935,-1.13118 6.149017,-2.45723 9.312138,-3.4114 2.523307,-0.76756 4.953162,-1.7959 7.396325,-2.7811 3.384041,-1.35899 6.804948,-2.63646 10.267474,-3.782 1.977465,-0.54743 1.025722,-0.27229 2.856469,-0.82113 0,0 14.1064507,-0.46621 14.1064507,-0.46621 l 0,0 c -1.83343318,0.70679 -0.8734983,0.41213 -2.88605481,0.86337 -3.49632499,1.01521 -6.90803359,2.34241 -10.28417889,3.69579 -2.48324,0.88227 -4.849686,2.04284 -7.332734,2.92977 -3.268923,0.72544 -6.283938,2.23354 -9.480637,3.20783 -6.083737,2.56504 -12.179509,5.10326 -18.07413,8.08974 -6.538709,3.5697 -13.161291,7.01249 -19.849553,10.28673 -7.891345,3.69348 -15.73754,7.47575 -23.715876,10.9768 -9.127978,4.2547 -18.243583,8.54275 -27.534913,12.43477 -9.8754,3.57956 -19.90016,6.73744 -29.62336,10.72924 -9.58607,3.87276 -19.08383,7.97747 -28.87077,11.32997 -7.35355,2.5622 -14.69895,5.14558 -22.05976,7.68656 0,0 -14.12865,0.3933 -14.12865,0.3933 z"
       inkscape:connector-curvature="0" />
    <flowRoot
       xml:space="preserve"
       id="flowRoot4368-8-8-4-8-4-00-2-7"
       style="font-style:normal;font-weight:normal;font-size:40px;line-height:125%;font-family:sans-serif;letter-spacing:0px;word-spacing:0px;fill:#00be0e;fill-opacity:1;stroke:none;stroke-width:1px;stroke-linecap:butt;stroke-linejoin:miter;stroke-opacity:1"
       transform="translate(17.979596,508.80863)"
       inkscape:export-xdpi="54.90102"
       inkscape:export-ydpi="54.90102"><flowRegion
         id="flowRegion4370-4-6-7-7-8-8-2-9"><rect
           id="rect4372-2-7-6-81-2-5-4-8"
           width="472.85712"
           height="32.857113"
           x="-111.42857"
           y="235.21935"
           style="fill:#00be0e;fill-opacity:1" /></flowRegion><flowPara
         style="font-style:normal;font-variant:normal;font-weight:bold;font-stretch:normal;font-size:22.5px;font-family:Aharoni;-inkscape-font-specification:'Aharoni Bold';fill:#00be0e;fill-opacity:1"
         id="flowPara4400-3-4-5-8-7-0-0">bug fix</flowPara></flowRoot>    <flowRoot
       xml:space="preserve"
       id="flowRoot4368-8-8-4-8-4-00-2-7-5"
       style="font-style:normal;font-weight:normal;font-size:40px;line-height:125%;font-family:sans-serif;letter-spacing:0px;word-spacing:0px;fill:#00be0e;fill-opacity:1;stroke:none;stroke-width:1px;stroke-linecap:butt;stroke-linejoin:miter;stroke-opacity:1"
       transform="translate(8.5140904,637.88612)"
       inkscape:export-xdpi="54.90102"
       inkscape:export-ydpi="54.90102"><flowRegion
         id="flowRegion4370-4-6-7-7-8-8-2-9-3"><rect
           id="rect4372-2-7-6-81-2-5-4-8-9"
           width="472.85712"
           height="32.857113"
           x="-111.42857"
           y="235.21935"
           style="fill:#00be0e;fill-opacity:1" /></flowRegion><flowPara
         style="font-style:normal;font-variant:normal;font-weight:bold;font-stretch:normal;font-size:22.5px;font-family:Aharoni;-inkscape-font-specification:'Aharoni Bold';fill:#00be0e;fill-opacity:1"
         id="flowPara4400-3-4-5-8-7-0-0-3">bug fix</flowPara></flowRoot>    <flowRoot
       xml:space="preserve"
       id="flowRoot4368-8-8-4-8-4-0-1-2"
       style="font-style:normal;font-weight:normal;font-size:40px;line-height:125%;font-family:sans-serif;letter-spacing:0px;word-spacing:0px;fill:#ffffff;fill-opacity:1;stroke:none;stroke-width:1px;stroke-linecap:butt;stroke-linejoin:miter;stroke-opacity:1"
       transform="translate(-261.29701,729.33531)"
       inkscape:export-xdpi="54.90102"
       inkscape:export-ydpi="54.90102"><flowRegion
         id="flowRegion4370-4-6-7-7-8-7-1-1"><rect
           id="rect4372-2-7-6-81-2-1-6-9"
           width="128.57138"
           height="87.142815"
           x="-111.42857"
           y="235.21935"
           style="fill:#ffffff;fill-opacity:1" /></flowRegion><flowPara
         style="font-style:normal;font-variant:normal;font-weight:bold;font-stretch:normal;font-size:30px;font-family:Aharoni;-inkscape-font-specification:'Aharoni Bold';fill:#ffffff;fill-opacity:1"
         id="flowPara4400-3-4-5-8-9-9-7">v1.1.0</flowPara></flowRoot>    <path
       style="opacity:1;fill:#459dff;fill-opacity:1;fill-rule:nonzero;stroke:none;stroke-width:5.38100004;stroke-linecap:butt;stroke-linejoin:miter;stroke-miterlimit:4;stroke-dasharray:none;stroke-dashoffset:0;stroke-opacity:1"
       id="path4189-19-5-1-0-8-6-7"
       d="m 195.60512,938.62993 c -6.32731,1.65399 -11.4921,5.51055 -15.73937,10.34956 -2.95371,4.82062 -4.75148,9.3899 -3.07184,14.98689 3.01113,5.03803 8.13438,8.09317 13.39175,10.3462 4.84113,1.78757 9.87319,2.0105 14.94943,1.58319 7.79973,-1.44646 -4.76506,0.90229 -8.9916,1.40082 -0.80125,0.0945 1.54112,-0.48187 2.29444,-0.77075 2.25366,-0.86422 4.33047,-2.01115 6.38873,-3.25579 3.60465,-2.02402 6.06267,-5.26462 8.15794,-8.73904 1.84614,-3.43932 2.70001,-7.06639 2.19649,-10.93012 -2.10265,-5.83387 -7.74984,-7.48939 -13.24838,-8.76708 -4.4709,-0.59416 -18.35076,1.83958 2.12172,-1.0346 0,0 -13.84207,0.36873 -13.84207,0.36873 l 0,0 c 8.70654,-1.72467 16.37451,-4.47657 25.01765,-3.29601 6.29667,1.69464 11.48838,3.73416 13.80598,10.34237 0.5866,4.16593 -0.18181,8.07514 -2.08833,11.84507 -1.99716,3.65644 -4.47847,7.2486 -8.12093,9.41826 -8.06348,5.35527 -17.22125,7.11252 -26.99214,7.83891 -5.16128,0.26177 -10.28195,-0.24441 -15.10035,-2.25746 -5.46805,-2.60886 -10.80312,-6.01575 -13.72726,-11.51254 -0.2186,-0.79406 -0.53238,-1.56787 -0.65579,-2.38217 -0.74201,-4.89583 1.3689,-9.79479 3.62555,-13.98233 4.17442,-5.01264 9.22149,-9.12956 15.50568,-11.20607 0,0 14.1227,-0.34604 14.1227,-0.34604 z"
       inkscape:connector-curvature="0" />
    <path
       style="opacity:1;fill:#459dff;fill-opacity:1;fill-rule:nonzero;stroke:none;stroke-width:5.38100004;stroke-linecap:butt;stroke-linejoin:miter;stroke-miterlimit:4;stroke-dasharray:none;stroke-dashoffset:0;stroke-opacity:1"
       id="path4193-9-3-8-1-0"
       d="m 203.6506,583.61615 c 0.57194,40.07565 0.73545,80.22104 0.87393,120.35541 0.0344,48.27493 0.36932,96.57625 0.0435,144.83932 -0.51722,29.29481 -0.35852,58.86357 -1.09502,88.08301 0,0 -13.89665,8.50009 -13.89665,8.50009 l 0,0 c 1.02043,-28.98009 0.81937,-58.61321 1.45343,-87.75728 0.41347,-48.17984 0.11919,-96.41512 0.0448,-144.61379 -0.17837,-39.87951 -0.3265,-79.85835 -1.32,-119.55715 0,0 13.89605,-9.84961 13.89605,-9.84961 z"
       inkscape:connector-curvature="0" />
    <path
       style="opacity:1;fill:#ffffff;fill-opacity:1;stroke:none;stroke-width:17.90200043;stroke-linejoin:round;stroke-miterlimit:4;stroke-dasharray:none;stroke-opacity:1"
       id="path4900"
       d="m 69.404082,894.99371 c 4.070567,0.87015 8.011169,2.1515 11.937658,3.51167 3.2196,1.37212 6.464582,2.70605 9.853991,3.59172 3.342219,0.90525 6.452915,2.42997 9.690419,3.61329 2.99454,0.84731 6.02184,1.64006 8.91715,2.79528 3.02458,0.97348 6.01364,2.02152 8.95288,3.22435 2.76634,1.46221 5.59789,2.77002 8.50007,3.94212 2.82269,1.30254 5.60544,2.6704 8.37726,4.07741 3.09175,1.21336 6.19155,2.40464 9.37228,3.36726 3.13999,0.99106 6.16283,2.29202 9.28423,3.32506 2.57753,1.18852 5.36,1.80809 7.86386,3.15602 2.38339,1.3518 4.84985,2.51133 7.39201,3.53731 2.65947,1.44771 5.56497,2.3875 8.24745,3.76533 1.49676,0.39819 3.3975,2.16652 4.8874,1.65221 0,0 -13.53033,4.3309 -13.53033,4.3309 l 0,0 c -1.69676,-0.63347 -3.29927,-1.51569 -4.96425,-2.22717 -2.74338,-1.22704 -5.49742,-2.42773 -8.22237,-3.698 -2.52848,-1.10317 -4.99943,-2.29901 -7.42457,-3.6138 -2.55627,-1.12628 -5.24189,-1.91506 -7.81683,-2.99847 -3.05826,-1.14845 -6.11353,-2.28734 -9.22305,-3.29559 -3.20355,-1.06398 -6.38776,-2.18829 -9.47549,-3.5591 -2.775,-1.32986 -5.45631,-2.84373 -8.31305,-4.00091 -2.88312,-1.2319 -5.71324,-2.56516 -8.53763,-3.92444 -2.92692,-1.20206 -5.952384,-2.13841 -8.940124,-3.17651 -2.942148,-0.99913 -5.91408,-1.89151 -8.876604,-2.82191 -3.183532,-1.26299 -6.343306,-2.59443 -9.657591,-3.492 -3.360444,-1.01697 -6.597044,-2.37426 -9.853553,-3.67934 -3.934281,-1.3738 -7.934531,-2.49156 -11.999893,-3.41075 0,0 13.558677,-3.99194 13.558677,-3.99194 z"
       inkscape:connector-curvature="0" />
  </g>
</svg>
